<svg xmlns="http://www.w3.org/2000/svg" xmlns:xlink="http://www.w3.org/1999/xlink" viewBox="0 0 1920 1080"><defs><style>.cls-1{fill:#233c7f;}.cls-2{opacity:0.1;fill:url(#Dégradé_sans_nom_77);}.cls-3,.cls-4{opacity:0.2;}.cls-3{fill:url(#Dégradé_sans_nom_72);}.cls-4{fill:url(#Dégradé_sans_nom_71);}.cls-5{fill:#3058a1;}.cls-6{opacity:0.6;}</style><linearGradient id="Dégradé_sans_nom_77" x1="1464.78" y1="1161.9" x2="876.45" y2="141.72" gradientTransform="translate(173.39 -215.03) rotate(11.67)" gradientUnits="userSpaceOnUse"><stop offset="0" stop-color="#27348b"/><stop offset="0.21" stop-color="#313e90" stop-opacity="0.98"/><stop offset="0.42" stop-color="#505aa1" stop-opacity="0.91"/><stop offset="0.64" stop-color="#828abc" stop-opacity="0.79"/><stop offset="0.86" stop-color="#c8cce2" stop-opacity="0.63"/><stop offset="1" stop-color="#fff" stop-opacity="0.5"/></linearGradient><linearGradient id="Dégradé_sans_nom_72" x1="342.18" y1="-17.19" x2="534.99" y2="94.12" gradientUnits="userSpaceOnUse"><stop offset="0" stop-color="#27348b"/><stop offset="0.32" stop-color="#2d3a8e" stop-opacity="0.98"/><stop offset="0.51" stop-color="#424d99" stop-opacity="0.9"/><stop offset="0.67" stop-color="#656eac" stop-opacity="0.77"/><stop offset="0.81" stop-color="#979dc7" stop-opacity="0.59"/><stop offset="0.94" stop-color="#d6d9e9" stop-opacity="0.35"/><stop offset="1" stop-color="#fff" stop-opacity="0.2"/></linearGradient><linearGradient id="Dégradé_sans_nom_71" x1="86.2" y1="1011.71" x2="246.95" y2="733.28" gradientUnits="userSpaceOnUse"><stop offset="0.01" stop-color="#233c7f"/><stop offset="0.33" stop-color="#2a4283" stop-opacity="0.97"/><stop offset="0.53" stop-color="#415690" stop-opacity="0.89"/><stop offset="0.69" stop-color="#6778a6" stop-opacity="0.74"/><stop offset="0.84" stop-color="#9ea9c5" stop-opacity="0.53"/><stop offset="0.97" stop-color="#e5e7ec" stop-opacity="0.27"/><stop offset="0.99" stop-color="#f6f6f6" stop-opacity="0.2"/></linearGradient></defs><title>Fond bleu</title><g id="Fond"><rect id="Fond_bleu_uni" data-name="Fond bleu uni" class="cls-1" width="1920" height="1080"/><path class="cls-2" d="M844.53,177.94C1155.32-26.43,1573,59.84,1777.32,370.64c144.92,220.39,143.7,494.5,19.9,708.19-416.57,0-1120.69.75-1164.7.75C453.4,772.57,544,375.56,844.53,177.94Z"/><path class="cls-3" d="M560.75,18.7a114.81,114.81,0,0,1-229.61,0c0-6.25-3.37-14.72,1.47-18.37C364,.33,564.49,4.84,559.18-.31,554.69-4.68,560.75,12.22,560.75,18.7Z"/><circle class="cls-4" cx="166.57" cy="872.5" r="160.72"/></g><g id="Points_gris" data-name="Points gris"><circle class="cls-5" cx="24" cy="570" r="2"/><circle class="cls-5" cx="54" cy="570" r="2"/><circle class="cls-5" cx="84" cy="570" r="2"/><circle class="cls-5" cx="114" cy="570" r="2"/><circle class="cls-5" cx="144" cy="570" r="2"/><circle class="cls-5" cx="174" cy="570" r="2"/><circle class="cls-5" cx="204" cy="570" r="2"/><circle class="cls-5" cx="234" cy="570" r="2"/><circle class="cls-5" cx="264" cy="570" r="2"/><circle class="cls-5" cx="24" cy="540" r="2"/><circle class="cls-5" cx="54" cy="540" r="2"/><circle class="cls-5" cx="84" cy="540" r="2"/><circle class="cls-5" cx="114" cy="540" r="2"/><circle class="cls-5" cx="144" cy="540" r="2"/><circle class="cls-5" cx="174" cy="540" r="2"/><circle class="cls-5" cx="204" cy="540" r="2"/><circle class="cls-5" cx="234" cy="540" r="2"/><circle class="cls-5" cx="264" cy="540" r="2"/><circle class="cls-5" cx="24" cy="510" r="2"/><circle class="cls-5" cx="54" cy="510" r="2"/><circle class="cls-5" cx="84" cy="510" r="2"/><circle class="cls-5" cx="114" cy="510" r="2"/><circle class="cls-5" cx="144" cy="510" r="2"/><circle class="cls-5" cx="174" cy="510" r="2"/><circle class="cls-5" cx="204" cy="510" r="2"/><circle class="cls-5" cx="234" cy="510" r="2"/><circle class="cls-5" cx="264" cy="510" r="2"/><circle class="cls-5" cx="24" cy="480" r="2"/><circle class="cls-5" cx="54" cy="480" r="2"/><circle class="cls-5" cx="84" cy="480" r="2"/><circle class="cls-5" cx="114" cy="480" r="2"/><circle class="cls-5" cx="144" cy="480" r="2"/><circle class="cls-5" cx="174" cy="480" r="2"/><circle class="cls-5" cx="204" cy="480" r="2"/><circle class="cls-5" cx="234" cy="480" r="2"/><circle class="cls-5" cx="264" cy="480" r="2"/><circle class="cls-5" cx="24" cy="450" r="2"/><circle class="cls-5" cx="54" cy="450" r="2"/><circle class="cls-5" cx="84" cy="450" r="2"/><circle class="cls-5" cx="114" cy="450" r="2"/><circle class="cls-5" cx="144" cy="450" r="2"/><circle class="cls-5" cx="174" cy="450" r="2"/><circle class="cls-5" cx="204" cy="450" r="2"/><circle class="cls-5" cx="234" cy="450" r="2"/><circle class="cls-5" cx="264" cy="450" r="2"/><g class="cls-6"><circle class="cls-5" cx="733" cy="939" r="2"/><circle class="cls-5" cx="763" cy="939" r="2"/><circle class="cls-5" cx="793" cy="939" r="2"/><circle class="cls-5" cx="823" cy="939" r="2"/><circle class="cls-5" cx="853" cy="939" r="2"/><circle class="cls-5" cx="733" cy="909" r="2"/><circle class="cls-5" cx="763" cy="909" r="2"/><circle class="cls-5" cx="793" cy="909" r="2"/><circle class="cls-5" cx="823" cy="909" r="2"/><circle class="cls-5" cx="853" cy="909" r="2"/><circle class="cls-5" cx="733" cy="1058" r="2"/><circle class="cls-5" cx="763" cy="1058" r="2"/><circle class="cls-5" cx="793" cy="1058" r="2"/><circle class="cls-5" cx="823" cy="1058" r="2"/><circle class="cls-5" cx="733" cy="879" r="2"/><circle class="cls-5" cx="763" cy="879" r="2"/><circle class="cls-5" cx="793" cy="879" r="2"/><circle class="cls-5" cx="823" cy="879" r="2"/><circle class="cls-5" cx="853" cy="879" r="2"/><circle class="cls-5" cx="733" cy="1028" r="2"/><circle class="cls-5" cx="763" cy="1028" r="2"/><circle class="cls-5" cx="793" cy="1028" r="2"/><circle class="cls-5" cx="823" cy="1028" r="2"/><circle class="cls-5" cx="733" cy="849" r="2"/><circle class="cls-5" cx="763" cy="849" r="2"/><circle class="cls-5" cx="793" cy="849" r="2"/><circle class="cls-5" cx="823" cy="849" r="2"/><circle class="cls-5" cx="853" cy="849" r="2"/><circle class="cls-5" cx="733" cy="998" r="2"/><circle class="cls-5" cx="763" cy="998" r="2"/><circle class="cls-5" cx="793" cy="998" r="2"/><circle class="cls-5" cx="823" cy="998" r="2"/><circle class="cls-5" cx="733" cy="819" r="2"/><circle class="cls-5" cx="763" cy="819" r="2"/><circle class="cls-5" cx="793" cy="819" r="2"/><circle class="cls-5" cx="823" cy="819" r="2"/><circle class="cls-5" cx="853" cy="819" r="2"/><circle class="cls-5" cx="733" cy="968" r="2"/><circle class="cls-5" cx="763" cy="968" r="2"/><circle class="cls-5" cx="793" cy="968" r="2"/><circle class="cls-5" cx="823" cy="968" r="2"/><circle class="cls-5" cx="853" cy="1060" r="2"/><circle class="cls-5" cx="853" cy="1030" r="2"/><circle class="cls-5" cx="853" cy="1000" r="2"/><circle class="cls-5" cx="853" cy="970" r="2"/></g></g></svg>