<svg id="Calque_1" data-name="Calque 1" xmlns="http://www.w3.org/2000/svg" viewBox="0 0 1000 170"><defs><style>.cls-1{fill:none;stroke:#fff;stroke-miterlimit:10;stroke-width:2px;}.cls-2{fill:#fff;}.cls-3{fill:#e8c40f;}</style></defs><title>Slogan</title><path class="cls-1" d="M25.2,47V64.17h-17V13.77h41V26.58h-24v9.63m0-1h21V48h-21"/><path class="cls-1" d="M107.5,21.61a10.32,10.32,0,0,1-7.13-2.37,7.59,7.59,0,0,1-2.67-5.91,7.57,7.57,0,0,1,2.67-5.9,10.32,10.32,0,0,1,7.13-2.38,10.71,10.71,0,0,1,7.12,2.24,7.14,7.14,0,0,1,2.67,5.76,7.93,7.93,0,0,1-2.67,6.15A10.19,10.19,0,0,1,107.5,21.61ZM99.36,64.17V24.78h16.27V64.17Z"/><path class="cls-1" d="M122.83,64.17V24.78h15.48V29s.6-1.1,3.24-2.63a18.56,18.56,0,0,1,9.51-2.31v14.4c-.72-.09-1.36-.17-1.91-.21s-1.12-.08-1.69-.08a9.24,9.24,0,0,0-6,1.91Q139.1,42,139.1,46.67v17.5Z"/><path class="cls-1" d="M239.4,61.36v2.81H223.92V10.74h16.27V28.13m0-.63a10.36,10.36,0,0,1,1.56-1.24,15.07,15.07,0,0,1,8.46-2.2,18.94,18.94,0,0,1,9.5,2.45,18.17,18.17,0,0,1,6.92,7,21.85,21.85,0,0,1,2.59,10.91,21.88,21.88,0,0,1-2.59,10.91,18.46,18.46,0,0,1-6.92,7,18.67,18.67,0,0,1-9.5,2.49,15.69,15.69,0,0,1-8.71-2.16A14.19,14.19,0,0,1,239,60.55m7.29-8.34a5.89,5.89,0,0,0,5.55-3.49,9.72,9.72,0,0,0,.86-4.28,9.49,9.49,0,0,0-.86-4.29,6.29,6.29,0,0,0-8.79-2.55,6.09,6.09,0,0,0-2.3,2.55,9.36,9.36,0,0,0-.87,4.29,9.58,9.58,0,0,0,.87,4.28,6,6,0,0,0,2.3,2.63A6.14,6.14,0,0,0,246.31,52.21Z"/><path class="cls-1" d="M315.29,21.61a10.32,10.32,0,0,1-7.13-2.37,7.59,7.59,0,0,1-2.67-5.91,7.57,7.57,0,0,1,2.67-5.9,10.32,10.32,0,0,1,7.13-2.38,10.71,10.71,0,0,1,7.12,2.24,7.14,7.14,0,0,1,2.67,5.76,7.93,7.93,0,0,1-2.67,6.15A10.19,10.19,0,0,1,315.29,21.61Zm-8.14,42.56V24.78h16.27V64.17Z"/><path class="cls-1" d="M330.62,64.17V10.74h16.27V64.17Z"/><path class="cls-1" d="M354.09,64.17V10.74h16.28V64.17Z"/><path class="cls-2" d="M479,64.17V10.74h16.27V64.17Z"/><path class="cls-2" d="M524.23,64.89a27.91,27.91,0,0,1-12.57-2.67,20.18,20.18,0,0,1-8.31-7.31,19.06,19.06,0,0,1-3-10.47,19.43,19.43,0,0,1,2.92-10.59,20,20,0,0,1,8-7.2,26.35,26.35,0,0,1,22.18-.28,18.76,18.76,0,0,1,7.92,6.84,20,20,0,0,1,3,11.23c0,.57,0,1.21-.08,1.91s-.09,1.33-.14,1.9H513.86V40.41h21.67l-6.12,2.08a8.57,8.57,0,0,0-.83-3.92,6.24,6.24,0,0,0-2.27-2.52,6.38,6.38,0,0,0-3.45-.9,6.54,6.54,0,0,0-3.49.9,5.91,5.91,0,0,0-2.27,2.52,8.84,8.84,0,0,0-.79,3.92v2.45a8.73,8.73,0,0,0,1,4.32,6.48,6.48,0,0,0,2.88,2.7,10.41,10.41,0,0,0,4.54.9,12,12,0,0,0,4.5-.72A17.34,17.34,0,0,0,532.94,50l8.49,8.57a18.71,18.71,0,0,1-7.09,4.72A28.2,28.2,0,0,1,524.23,64.89Z"/><path class="cls-2" d="M564.91,64.89A46,46,0,0,1,555,63.81,28.63,28.63,0,0,1,547.05,61l4.46-10.73A24.8,24.8,0,0,0,558,52.86a29.2,29.2,0,0,0,7.24.94,10.37,10.37,0,0,0,4-.51,1.52,1.52,0,0,0,1-1.36q0-.87-1.23-1.26a16.51,16.51,0,0,0-3.24-.62c-1.34-.14-2.82-.32-4.43-.54a39,39,0,0,1-4.86-1,15.55,15.55,0,0,1-4.46-1.94,9.81,9.81,0,0,1-3.24-3.49,11.36,11.36,0,0,1-1.22-5.58,11,11,0,0,1,2.26-6.77,15.52,15.52,0,0,1,6.77-4.86,29.44,29.44,0,0,1,11.13-1.84,48.55,48.55,0,0,1,8.64.79,25.49,25.49,0,0,1,7.41,2.45L579.38,38a22,22,0,0,0-5.94-2.27,26.49,26.49,0,0,0-5.44-.61,10.22,10.22,0,0,0-4.21.58c-.74.38-1.12.81-1.12,1.29s.41,1,1.23,1.3a14.8,14.8,0,0,0,3.24.65c1.34.14,2.82.32,4.43.54a34.71,34.71,0,0,1,4.82,1,16.74,16.74,0,0,1,4.43,2,9.75,9.75,0,0,1,3.24,3.5,11.41,11.41,0,0,1,1.22,5.58,10.93,10.93,0,0,1-2.23,6.58,15.08,15.08,0,0,1-6.77,4.9A30.54,30.54,0,0,1,564.91,64.89Z"/><path class="cls-2" d="M623.22,64.17V26.94H608.46V13.77H655V26.94H640.22V64.17Z"/><path class="cls-2" d="M669.74,64.89a17.67,17.67,0,0,1-8.07-1.66,11.51,11.51,0,0,1-6.55-10.58,10.71,10.71,0,0,1,1.94-6.48,11.88,11.88,0,0,1,5.94-4,31.82,31.82,0,0,1,10.12-1.36h8.21v7.84h-5.62a6.74,6.74,0,0,0-3.78.83,3.08,3.08,0,0,0-.14,4.75,4.19,4.19,0,0,0,2.84.9,5.53,5.53,0,0,0,3.06-.9,5.11,5.11,0,0,0,2-2.84l2.09,4.82a10.28,10.28,0,0,1-4,6.56A13.72,13.72,0,0,1,669.74,64.89Zm11.16-.72v-7l-1.16-1.87V42.06A5.45,5.45,0,0,0,678,37.67q-1.77-1.52-5.72-1.51a18.27,18.27,0,0,0-5.4.83,15,15,0,0,0-4.68,2.26L657,28.53a27.84,27.84,0,0,1,8.28-3.32,41,41,0,0,1,9.43-1.15q10.15,0,15.74,4.54T696,43V64.17Z"/><path class="cls-2" d="M703.07,64.17V10.74h16.27V64.17Z"/><path class="cls-2" d="M748.29,64.89a27.91,27.91,0,0,1-12.57-2.67,20.18,20.18,0,0,1-8.31-7.31,19.06,19.06,0,0,1-3-10.47,19.43,19.43,0,0,1,2.92-10.59,20,20,0,0,1,8-7.2,26.35,26.35,0,0,1,22.18-.28,18.76,18.76,0,0,1,7.92,6.84,20,20,0,0,1,3,11.23c0,.57,0,1.21-.08,1.91s-.09,1.33-.14,1.9H737.92V40.41h21.67l-6.12,2.08a8.57,8.57,0,0,0-.83-3.92,6.24,6.24,0,0,0-2.27-2.52,6.38,6.38,0,0,0-3.45-.9,6.54,6.54,0,0,0-3.49.9,5.91,5.91,0,0,0-2.27,2.52,8.84,8.84,0,0,0-.79,3.92v2.45a8.73,8.73,0,0,0,1,4.32,6.48,6.48,0,0,0,2.88,2.7,10.41,10.41,0,0,0,4.54.9,12,12,0,0,0,4.5-.72A17.34,17.34,0,0,0,757,50l8.49,8.57a18.71,18.71,0,0,1-7.09,4.72A28.2,28.2,0,0,1,748.29,64.89Z"/><path class="cls-2" d="M800.92,24.06a18,18,0,0,1,8.21,1.84,13.31,13.31,0,0,1,5.79,5.72,20.88,20.88,0,0,1,2.13,10.08V64.17H800.78V44.51c0-2.45-.44-4.19-1.3-5.22A4.36,4.36,0,0,0,796,37.74a6.31,6.31,0,0,0-3.06.76A5.29,5.29,0,0,0,790.66,41a11,11,0,0,0-.83,4.68V64.17H773.56V24.78H789V36.3L785.94,33a15.78,15.78,0,0,1,6.23-6.7A17.47,17.47,0,0,1,800.92,24.06Z"/><path class="cls-2" d="M820.5,38.82V26.94h29.74V38.82Zm22.61,26.07q-8.13,0-12.67-3.93T825.9,48.9v-33h16.27V48.76a3.89,3.89,0,0,0,1,2.81,3.2,3.2,0,0,0,2.41,1,6.37,6.37,0,0,0,3.67-1.08l3.89,11.31a14.27,14.27,0,0,1-4.5,1.58A28.87,28.87,0,0,1,843.11,64.89Z"/><path class="cls-2" d="M872.63,64.89a46.07,46.07,0,0,1-9.94-1.08A28.63,28.63,0,0,1,854.77,61l4.47-10.73a24.59,24.59,0,0,0,6.51,2.59,29.32,29.32,0,0,0,7.24.94,10.43,10.43,0,0,0,4-.51,1.53,1.53,0,0,0,1-1.36c0-.58-.41-1-1.22-1.26a16.66,16.66,0,0,0-3.24-.62c-1.35-.14-2.82-.32-4.43-.54a38.68,38.68,0,0,1-4.86-1,15.74,15.74,0,0,1-4.47-1.94,9.81,9.81,0,0,1-3.24-3.49,11.47,11.47,0,0,1-1.22-5.58,11,11,0,0,1,2.27-6.77,15.46,15.46,0,0,1,6.77-4.86,29.39,29.39,0,0,1,11.12-1.84,48.55,48.55,0,0,1,8.64.79,25.66,25.66,0,0,1,7.42,2.45L887.1,38a21.72,21.72,0,0,0-5.94-2.27,26.33,26.33,0,0,0-5.43-.61,10.28,10.28,0,0,0-4.22.58q-1.11.57-1.11,1.29c0,.58.41,1,1.22,1.3a15.06,15.06,0,0,0,3.24.65c1.35.14,2.82.32,4.43.54a34.41,34.41,0,0,1,4.82,1,16.6,16.6,0,0,1,4.43,2,9.67,9.67,0,0,1,3.24,3.5A11.3,11.3,0,0,1,893,51.57a10.94,10.94,0,0,1-2.24,6.58,15,15,0,0,1-6.76,4.9A30.63,30.63,0,0,1,872.63,64.89Z"/><path class="cls-2" d="M896.82,75.69l6-20.24,2.38,9.08a9.82,9.82,0,0,1-6.85-2.42,8.44,8.44,0,0,1-2.66-6.58,8.71,8.71,0,0,1,2.7-6.74,10.58,10.58,0,0,1,13.61,0,8.71,8.71,0,0,1,2.7,6.74,15,15,0,0,1-.18,2.3,15.31,15.31,0,0,1-.76,2.77c-.38,1.08-1,2.53-1.87,4.36l-5,10.73Z"/><path class="cls-1" d="M35.54,147.61a10.5,10.5,0,0,1-1.81,1.52A15.68,15.68,0,0,1,25,151.29a18.73,18.73,0,0,1-9.46-2.49,18.33,18.33,0,0,1-6.95-7.05,24.27,24.27,0,0,1,0-21.82,18,18,0,0,1,7-7A19,19,0,0,1,25,110.46a15.05,15.05,0,0,1,8.5,2.2,11.52,11.52,0,0,1,1.25,1m-5.86,25a5.89,5.89,0,0,0,5.55-3.49,9.72,9.72,0,0,0,.86-4.28,9.49,9.49,0,0,0-.86-4.29A6.29,6.29,0,0,0,25.63,124a6.09,6.09,0,0,0-2.3,2.55,9.36,9.36,0,0,0-.87,4.29,9.58,9.58,0,0,0,.87,4.28,6,6,0,0,0,2.3,2.63A6.14,6.14,0,0,0,28.87,138.61ZM35,116.44V97.14H51.27v53.43H35.79v-5.33"/><path class="cls-1" d="M57.38,125.8,61,113.63s-.28.2-2.05-1.4a8.44,8.44,0,0,1-2.67-6.59A8.69,8.69,0,0,1,59,98.91a10.54,10.54,0,0,1,13.61,0,8.69,8.69,0,0,1,2.7,6.73,14.85,14.85,0,0,1-.18,2.3,16,16,0,0,1-.75,2.77c-.39,1.08-1,2.54-1.88,4.36l-5,10.73Z"/><path class="cls-1" d="M184.68,165.25a28.88,28.88,0,0,1-5.51-.5,17.77,17.77,0,0,1-4.5-1.44l3.89-11.3a7.64,7.64,0,0,0,3.67.93,3.1,3.1,0,0,0,2.41-1.08,5.06,5.06,0,0,0,1-3.45V111.18h16.27v37.37q0,7.63-4.54,12.17T184.68,165.25ZM193.75,108a10.33,10.33,0,0,1-7.13-2.37,7.88,7.88,0,0,1,0-11.81,10.34,10.34,0,0,1,7.13-2.38,10.74,10.74,0,0,1,7.13,2.24,7.16,7.16,0,0,1,2.66,5.76,8,8,0,0,1-2.66,6.15A10.21,10.21,0,0,1,193.75,108Z"/><path class="cls-1" d="M229.9,151.29a25.72,25.72,0,0,1-11.85-2.63,20.47,20.47,0,0,1-8.1-7.24,20.47,20.47,0,0,1,0-21.17,20.22,20.22,0,0,1,8.1-7.2,28.47,28.47,0,0,1,23.73,0,20,20,0,0,1,8.1,7.2,20.71,20.71,0,0,1,0,21.17,20.2,20.2,0,0,1-8.1,7.24A26,26,0,0,1,229.9,151.29Zm0-12.68a6.16,6.16,0,0,0,3.24-.86,6.09,6.09,0,0,0,2.3-2.63,9.58,9.58,0,0,0,.86-4.28,9.36,9.36,0,0,0-.86-4.29,6.17,6.17,0,0,0-11.09,0,9.49,9.49,0,0,0-.86,4.29,9.72,9.72,0,0,0,.86,4.28,6,6,0,0,0,2.31,2.63A6.14,6.14,0,0,0,229.9,138.61Z"/><path class="cls-1" d="M390.31,125.8,394,113.63s-.28.2-2.06-1.4a8.47,8.47,0,0,1-2.66-6.59,8.69,8.69,0,0,1,2.7-6.73,10.54,10.54,0,0,1,13.61,0,8.69,8.69,0,0,1,2.7,6.73,14.85,14.85,0,0,1-.18,2.3,15.31,15.31,0,0,1-.76,2.77c-.38,1.08-1,2.54-1.87,4.36l-5,10.73Z"/><path class="cls-1" d="M440.64,110.46a18,18,0,0,1,8.21,1.84,13.31,13.31,0,0,1,5.79,5.72,20.88,20.88,0,0,1,2.13,10.08v22.47H440.49V130.91q0-3.67-1.29-5.22a4.38,4.38,0,0,0-3.53-1.55,6.28,6.28,0,0,0-3.06.76,5.24,5.24,0,0,0-2.23,2.48,10.84,10.84,0,0,0-.83,4.68v18.51H413.28V97.14h16.27v17.18s-.28-.14,2.34-1.63A17.44,17.44,0,0,1,440.64,110.46Z"/><path class="cls-1" d="M480.24,151.29a18.53,18.53,0,0,1-8.46-1.91,13.57,13.57,0,0,1-5.94-6,22.24,22.24,0,0,1-2.16-10.47V111.18H480v18.94c0,2.78.45,4.73,1.37,5.83a4.61,4.61,0,0,0,3.74,1.66,5.2,5.2,0,0,0,2.7-.76,5.35,5.35,0,0,0,2.05-2.52,11.42,11.42,0,0,0,.79-4.64V111.18h16.28v39.39H491.4v-3.71s-.28.77-2.85,2.23A16.56,16.56,0,0,1,480.24,151.29Z"/><path class="cls-1" d="M522.21,108a10.35,10.35,0,0,1-7.13-2.37,7.88,7.88,0,0,1,0-11.81,10.36,10.36,0,0,1,7.13-2.38,10.74,10.74,0,0,1,7.13,2.24A7.13,7.13,0,0,1,532,99.45a7.92,7.92,0,0,1-2.66,6.15A10.21,10.21,0,0,1,522.21,108Zm-8.13,42.56V111.18h16.27v39.39Z"/><path class="cls-1" d="M536.47,162.09l3.64-12.19s-.28.22-2.06-1.39a8.44,8.44,0,0,1-2.66-6.58,8.71,8.71,0,0,1,2.7-6.74,10.58,10.58,0,0,1,13.61,0,8.71,8.71,0,0,1,2.7,6.74,15,15,0,0,1-.18,2.3,16.18,16.18,0,0,1-.76,2.77c-.38,1.08-1,2.53-1.87,4.36l-5,10.73Z"/><path class="cls-3" d="M598.31,151.29a18.73,18.73,0,0,1-9.46-2.49,18.33,18.33,0,0,1-7-7.05,24.27,24.27,0,0,1,0-21.82,18,18,0,0,1,7-7,19,19,0,0,1,9.46-2.45,15.05,15.05,0,0,1,8.5,2.2,12.83,12.83,0,0,1,4.9,6.69,35.32,35.32,0,0,1,1.58,11.49,37.94,37.94,0,0,1-1.48,11.59,12.15,12.15,0,0,1-4.75,6.7A15.68,15.68,0,0,1,598.31,151.29Zm3.89-12.68a5.89,5.89,0,0,0,5.55-3.49,9.72,9.72,0,0,0,.86-4.28,9.49,9.49,0,0,0-.86-4.29A6.29,6.29,0,0,0,599,124a6.09,6.09,0,0,0-2.3,2.55,9.36,9.36,0,0,0-.87,4.29,9.58,9.58,0,0,0,.87,4.28,6,6,0,0,0,2.3,2.63A6.14,6.14,0,0,0,602.2,138.61Zm6.91,12v-5.33l-.07-14.4-.72-14.4V97.14h16.27v53.43Z"/><path class="cls-3" d="M653.54,151.29A27.91,27.91,0,0,1,641,148.62a20.18,20.18,0,0,1-8.31-7.31,19.06,19.06,0,0,1-2.95-10.47,19.42,19.42,0,0,1,2.91-10.59,20.11,20.11,0,0,1,8-7.2,26.35,26.35,0,0,1,22.18-.28,18.76,18.76,0,0,1,7.92,6.84,20,20,0,0,1,3,11.23c0,.57,0,1.21-.07,1.91s-.1,1.33-.15,1.9H643.17v-7.84h21.67l-6.12,2.08a8.57,8.57,0,0,0-.83-3.92,6.29,6.29,0,0,0-2.26-2.52,6.44,6.44,0,0,0-3.46-.9,6.57,6.57,0,0,0-3.49.9,5.91,5.91,0,0,0-2.27,2.52,8.84,8.84,0,0,0-.79,3.92v2.45a8.63,8.63,0,0,0,1,4.32,6.38,6.38,0,0,0,2.88,2.7,10.37,10.37,0,0,0,4.53.9,12,12,0,0,0,4.5-.72,17.34,17.34,0,0,0,3.71-2.16l8.5,8.57a18.75,18.75,0,0,1-7.1,4.72A28.17,28.17,0,0,1,653.54,151.29Z"/><path class="cls-3" d="M700.91,150.57v-50.4h24.84a34,34,0,0,1,14.83,3.06,23.7,23.7,0,0,1,10,8.67,24.3,24.3,0,0,1,3.6,13.39,24.56,24.56,0,0,1-3.6,13.5,23.6,23.6,0,0,1-10,8.72,34,34,0,0,1-14.83,3.06Zm17-13.25H725a13.79,13.79,0,0,0,6.3-1.37,9.78,9.78,0,0,0,4.21-4.07,13.27,13.27,0,0,0,1.52-6.59,12.94,12.94,0,0,0-1.52-6.48,9.86,9.86,0,0,0-4.21-4,13.79,13.79,0,0,0-6.3-1.37H717.9Z"/><path class="cls-3" d="M781.62,151.29a27.83,27.83,0,0,1-12.56-2.67,20.21,20.21,0,0,1-8.32-7.31,19.06,19.06,0,0,1-3-10.47,19.35,19.35,0,0,1,2.92-10.59,20,20,0,0,1,8-7.2,26.32,26.32,0,0,1,22.17-.28,18.76,18.76,0,0,1,7.92,6.84,19.9,19.9,0,0,1,3,11.23c0,.57,0,1.21-.07,1.91s-.1,1.33-.14,1.9H771.26v-7.84h21.67l-6.12,2.08A8.57,8.57,0,0,0,786,125a6.24,6.24,0,0,0-2.27-2.52,6.39,6.39,0,0,0-3.46-.9,6.59,6.59,0,0,0-3.49.9A5.88,5.88,0,0,0,774.5,125a8.84,8.84,0,0,0-.8,3.92v2.45a8.73,8.73,0,0,0,1,4.32,6.38,6.38,0,0,0,2.88,2.7,10.41,10.41,0,0,0,4.54.9,12,12,0,0,0,4.5-.72,17.29,17.29,0,0,0,3.7-2.16l8.5,8.57a18.71,18.71,0,0,1-7.09,4.72A28.22,28.22,0,0,1,781.62,151.29Z"/><path class="cls-3" d="M859,110.46a17.18,17.18,0,0,1,8,1.84,13.06,13.06,0,0,1,5.62,5.72,21.52,21.52,0,0,1,2.05,10.08v22.47H858.45V130.91q0-3.67-1.23-5.22a3.85,3.85,0,0,0-3.16-1.55,4.8,4.8,0,0,0-2.6.72,4.92,4.92,0,0,0-1.83,2.27,10.55,10.55,0,0,0-.69,4.21v19.23H832.67V130.91q0-3.67-1.15-5.22a3.82,3.82,0,0,0-3.24-1.55,4.79,4.79,0,0,0-2.59.72,4.94,4.94,0,0,0-1.84,2.27,10.75,10.75,0,0,0-.68,4.21v19.23H806.9V111.18h15.48v11.31l-3.17-3.17a15.47,15.47,0,0,1,6-6.66,17,17,0,0,1,17.54.5q4,2.7,5.36,8.53l-5-.79a17.5,17.5,0,0,1,6.3-7.67A16.94,16.94,0,0,1,859,110.46Z"/><path class="cls-3" d="M894.45,151.29a17.67,17.67,0,0,1-8.07-1.66,11.51,11.51,0,0,1-6.55-10.58,10.71,10.71,0,0,1,1.94-6.48,11.88,11.88,0,0,1,5.94-4,31.82,31.82,0,0,1,10.12-1.36H906V135h-5.62a6.74,6.74,0,0,0-3.78.83,3.1,3.1,0,0,0-.14,4.75,4.14,4.14,0,0,0,2.84.9,5.45,5.45,0,0,0,3.06-.9,5.17,5.17,0,0,0,2.06-2.84l2.08,4.82a10.28,10.28,0,0,1-4,6.56A13.72,13.72,0,0,1,894.45,151.29Zm11.16-.72v-7l-1.15-1.87V128.46a5.46,5.46,0,0,0-1.77-4.39c-1.18-1-3.08-1.51-5.72-1.51a18.27,18.27,0,0,0-5.4.83,15,15,0,0,0-4.68,2.26l-5.19-10.72a27.84,27.84,0,0,1,8.28-3.32,41,41,0,0,1,9.43-1.15q10.15,0,15.74,4.54t5.58,14.4v21.17Z"/><path class="cls-3" d="M935.92,108a10.33,10.33,0,0,1-7.13-2.37,7.88,7.88,0,0,1,0-11.81,10.34,10.34,0,0,1,7.13-2.38,10.76,10.76,0,0,1,7.13,2.24,7.16,7.16,0,0,1,2.66,5.76,8,8,0,0,1-2.66,6.15A10.23,10.23,0,0,1,935.92,108Zm-8.14,42.56V111.18h16.27v39.39Z"/><path class="cls-3" d="M978.61,110.46a18,18,0,0,1,8.21,1.84,13.33,13.33,0,0,1,5.8,5.72,21,21,0,0,1,2.12,10.08v22.47H978.47V130.91q0-3.67-1.3-5.22a4.36,4.36,0,0,0-3.52-1.55,6.32,6.32,0,0,0-3.07.76,5.29,5.29,0,0,0-2.23,2.48,11,11,0,0,0-.82,4.68v18.51H951.25V111.18h15.48V122.7l-3.09-3.31a15.72,15.72,0,0,1,6.23-6.7A17.43,17.43,0,0,1,978.61,110.46Z"/><polygon class="cls-1" points="93.78 99.14 112 99.14 134.81 151.65 115.04 151.65 111.5 142.72 93.85 142.72 90.52 151.65 70.89 151.65 93.78 99.14"/><polygon class="cls-1" points="102.71 113.81 96.41 130.53 109.09 130.53 102.71 113.81"/><path class="cls-1" d="M368.53,147.3a10.44,10.44,0,0,1-1.81,1.51A15.68,15.68,0,0,1,358,151a18.8,18.8,0,0,1-9.46-2.48,18.35,18.35,0,0,1-6.95-7.06,24.25,24.25,0,0,1,0-21.81,18,18,0,0,1,6.95-7,18.88,18.88,0,0,1,9.46-2.45,15.13,15.13,0,0,1,8.5,2.19,9.63,9.63,0,0,1,1.24,1m-5.85,25a5.93,5.93,0,0,0,5.55-3.49,9.79,9.79,0,0,0,.86-4.29,9.48,9.48,0,0,0-.86-4.28,6.31,6.31,0,0,0-8.79-2.56,6.12,6.12,0,0,0-2.3,2.56,9.34,9.34,0,0,0-.87,4.28,9.65,9.65,0,0,0,.87,4.29,6,6,0,0,0,2.3,2.62A6.14,6.14,0,0,0,361.86,138.3ZM368,116.12V96.83h16.27v53.42H368.77v-5.33"/><path class="cls-1" d="M274.67,151.31a18.5,18.5,0,0,1-8.46-1.91,13.6,13.6,0,0,1-5.94-6A22.28,22.28,0,0,1,258.11,133V111.21h16.27v18.93c0,2.79.45,4.73,1.37,5.83a4.58,4.58,0,0,0,3.74,1.66,5.11,5.11,0,0,0,2.7-.76,5.35,5.35,0,0,0,2.05-2.52,11.39,11.39,0,0,0,.79-4.64v-18.5h16.28v39.38H285.83v-3.7s-.28.76-2.85,2.22A16.45,16.45,0,0,1,274.67,151.31Z"/><path class="cls-1" d="M151.06,151.35a18.53,18.53,0,0,1-8.46-1.91,13.57,13.57,0,0,1-5.94-6A22.24,22.24,0,0,1,134.5,133V111.24h16.28v18.94c0,2.78.45,4.73,1.36,5.83a4.58,4.58,0,0,0,3.75,1.66,5.11,5.11,0,0,0,2.7-.76,5.35,5.35,0,0,0,2-2.52,11.39,11.39,0,0,0,.79-4.64V111.24H177.7v39.39H162.22v-3.71s-.27.77-2.84,2.23A16.46,16.46,0,0,1,151.06,151.35Z"/><path class="cls-1" d="M424.61,64.17V24.78h15.48V29s.59-1.1,3.24-2.63a18.5,18.5,0,0,1,9.5-2.31v14.4c-.72-.09-1.36-.17-1.91-.21s-1.11-.08-1.69-.08a9.21,9.21,0,0,0-6,1.91q-2.34,1.91-2.34,6.59v17.5Z"/><path class="cls-1" d="M274.33,64.17V24.78h15.48V29s.6-1.1,3.24-2.63a18.52,18.52,0,0,1,9.5-2.31v14.4c-.72-.09-1.36-.17-1.91-.21s-1.11-.08-1.69-.08a9.21,9.21,0,0,0-6,1.91Q290.6,42,290.6,46.67v17.5Z"/><path class="cls-1" d="M308.14,150.08V110.7h15.48v4.22s.6-1.1,3.24-2.63a18.56,18.56,0,0,1,9.51-2.31v14.4c-.72-.09-1.36-.17-1.91-.22s-1.12-.07-1.69-.07a9.24,9.24,0,0,0-6,1.91q-2.34,1.91-2.34,6.59v17.49Z"/><path class="cls-1" d="M419.25,48.25H391.92a8.16,8.16,0,0,0,2.9,3.52c3.44,2.29,8.72,1.6,13.2-1.79l8.5,8.57a19,19,0,0,1-3.41,2.86,20.68,20.68,0,0,1-3.69,1.86,22.89,22.89,0,0,1-4.91,1.26,30.37,30.37,0,0,1-5.2.36,30.81,30.81,0,0,1-6.28-.6,24.3,24.3,0,0,1-6.29-2.07,23.15,23.15,0,0,1-4-2.51,20,20,0,0,1-4.34-4.8,19,19,0,0,1-2.13-4.65,19.23,19.23,0,0,1-.82-5.82,19.15,19.15,0,0,1,.68-5.61,18.7,18.7,0,0,1,2.23-5,19.91,19.91,0,0,1,8-7.2,24.15,24.15,0,0,1,5.75-2,23.89,23.89,0,0,1,5.67-.55,23.51,23.51,0,0,1,10.76,2.31,19.8,19.8,0,0,1,7.92,6.84,20.73,20.73,0,0,1,3,11.23C419.4,45.71,419.32,47,419.25,48.25Z"/><path class="cls-1" d="M404.25,40.41H391.56A6.37,6.37,0,0,1,394,36.32a6.31,6.31,0,0,1,3.92-1.17,6.08,6.08,0,0,1,6.31,5.26Z"/><path class="cls-1" d="M196.91,48.25H169.58a8.23,8.23,0,0,0,2.9,3.52c3.44,2.29,8.72,1.6,13.2-1.79l8.5,8.57a18.27,18.27,0,0,1-3.41,2.86,20.82,20.82,0,0,1-3.68,1.86,23.1,23.1,0,0,1-4.92,1.26,30.32,30.32,0,0,1-5.2.36,30.81,30.81,0,0,1-6.28-.6,24.26,24.26,0,0,1-6.28-2.07,22.3,22.3,0,0,1-4-2.51,19.93,19.93,0,0,1-4.35-4.8A18.71,18.71,0,0,1,154,50.26a19.67,19.67,0,0,1-.83-5.82,19.15,19.15,0,0,1,.68-5.61,18.7,18.7,0,0,1,2.23-5,20.4,20.4,0,0,1,3.4-4.05,20,20,0,0,1,4.6-3.15,24.14,24.14,0,0,1,11.41-2.59,23.51,23.51,0,0,1,10.76,2.31,19.62,19.62,0,0,1,7.92,6.84,20.73,20.73,0,0,1,3,11.23C197.06,45.71,197,47,196.91,48.25Z"/><path class="cls-1" d="M181.91,40.41H169.22a6.37,6.37,0,0,1,2.46-4.09,6.31,6.31,0,0,1,3.92-1.17,6.22,6.22,0,0,1,4.3,1.51A6.16,6.16,0,0,1,181.91,40.41Z"/><path class="cls-1" d="M308.14,150.57V111.18h15.48v4.22s.6-1.1,3.24-2.63a18.56,18.56,0,0,1,9.51-2.31v14.4c-.72-.09-1.36-.17-1.91-.21s-1.12-.08-1.69-.08a9.24,9.24,0,0,0-6,1.91q-2.34,1.9-2.34,6.59v17.5Z"/><path class="cls-1" d="M53.28,28.53a29.12,29.12,0,0,1,4-2,29.64,29.64,0,0,1,4.25-1.33,43.18,43.18,0,0,1,5.1-.89,37.48,37.48,0,0,1,6.62-.18,24,24,0,0,1,9.83,2.22,20.1,20.1,0,0,1,5.19,3.73A18.83,18.83,0,0,1,91.09,35a20.79,20.79,0,0,1,1.21,8V64.17H77.18v-7a7.24,7.24,0,0,1-3,5.55,14.16,14.16,0,0,1-3.72,1.66,14,14,0,0,1-4.42.5,19.43,19.43,0,0,1-3.65-.31A19.82,19.82,0,0,1,58,63.23a12.68,12.68,0,0,1-4.9-4.43,11.62,11.62,0,0,1-1.65-6.15,10.51,10.51,0,0,1,.47-3.52,10.23,10.23,0,0,1,1.47-3,11.93,11.93,0,0,1,2.59-2.43,12.22,12.22,0,0,1,3.35-1.61A28.84,28.84,0,0,1,64.59,41a28.25,28.25,0,0,1,4.82-.18h6.52a5,5,0,0,0-.71-1.88c-1.89-3-6.31-2.75-6.68-2.72a13.07,13.07,0,0,0-5.4.83,21.76,21.76,0,0,0-2.38,1,23.76,23.76,0,0,0-2.3,1.27Q55.88,33.89,53.28,28.53Z"/><path class="cls-1" d="M76,48.61l0,2.74a5.19,5.19,0,0,1-1.43,2.36,5.34,5.34,0,0,1-3.68,1.38,4.1,4.1,0,0,1-2.84-.9,3.26,3.26,0,0,1-1-2.26,2.4,2.4,0,0,1,1.19-2.49,6,6,0,0,1,1.52-.64A6.17,6.17,0,0,1,72,48.61Z"/></svg>