<svg id="Fond" xmlns="http://www.w3.org/2000/svg" xmlns:xlink="http://www.w3.org/1999/xlink" viewBox="0 0 1920 1080"><defs><style>.cls-1{fill:#fff;}.cls-2{opacity:0.1;fill:url(#Dégradé_sans_nom_43);}.cls-3{opacity:0.2;fill:url(#Dégradé_sans_nom_40);}</style><linearGradient id="Dégradé_sans_nom_43" x1="1465.11" y1="1161.97" x2="876.16" y2="141.89" gradientTransform="translate(173.39 -215.03) rotate(11.67)" gradientUnits="userSpaceOnUse"><stop offset="0" stop-color="#fff"/><stop offset="0.45" stop-color="#fdfdfd"/><stop offset="0.61" stop-color="#f6f6f6"/><stop offset="0.73" stop-color="#ebebeb"/><stop offset="0.82" stop-color="#dadada"/><stop offset="0.9" stop-color="#c4c4c4"/><stop offset="0.97" stop-color="#aaaaa9"/><stop offset="1" stop-color="#9d9d9c"/></linearGradient><linearGradient id="Dégradé_sans_nom_40" x1="342.18" y1="-17.19" x2="534.99" y2="94.12" gradientUnits="userSpaceOnUse"><stop offset="0" stop-color="#fff"/><stop offset="0.31" stop-color="#fcfcfc"/><stop offset="0.49" stop-color="#f4f4f4"/><stop offset="0.64" stop-color="#e6e6e6"/><stop offset="0.78" stop-color="#d2d2d2"/><stop offset="0.9" stop-color="#b8b8b8"/><stop offset="1" stop-color="#9d9d9c"/></linearGradient></defs><title>Design light 2</title><rect id="Fond_blanc" data-name="Fond blanc" class="cls-1" width="1920" height="1080"/><path class="cls-2" d="M844.53,177.94C1155.32-26.43,1573,59.84,1777.32,370.64c144.92,220.39,143.7,494.5,19.9,708.19-416.57,0-1120.69.75-1164.7.75C453.4,772.57,544,375.56,844.53,177.94Z"/><path class="cls-3" d="M560.75,18.7a114.81,114.81,0,0,1-229.61,0c0-6.25-3.37-14.72,1.47-18.37C364,.33,564.49,4.84,559.18-.31,554.69-4.68,560.75,12.22,560.75,18.7Z"/></svg>