<svg xmlns="http://www.w3.org/2000/svg" xmlns:xlink="http://www.w3.org/1999/xlink" viewBox="0 0 1920 1514.1"><defs><style>.cls-1{fill:#fff;}.cls-2,.cls-3{opacity:0.2;}.cls-2{fill:url(#Dégradé_sans_nom_40);}.cls-3{fill:url(#Dégradé_sans_nom_40-2);}.cls-4{opacity:0.1;fill:url(#Dégradé_sans_nom_43);}.cls-5{opacity:0.6;}.cls-6{fill:#ddd;}</style><linearGradient id="Dégradé_sans_nom_40" x1="86.2" y1="1108.96" x2="246.95" y2="830.53" gradientUnits="userSpaceOnUse"><stop offset="0" stop-color="#fff"/><stop offset="0.31" stop-color="#fcfcfc"/><stop offset="0.49" stop-color="#f4f4f4"/><stop offset="0.64" stop-color="#e6e6e6"/><stop offset="0.78" stop-color="#d2d2d2"/><stop offset="0.9" stop-color="#b8b8b8"/><stop offset="1" stop-color="#9d9d9c"/></linearGradient><linearGradient id="Dégradé_sans_nom_40-2" x1="345.44" y1="57.68" x2="545.31" y2="173.07" xlink:href="#Dégradé_sans_nom_40"/><linearGradient id="Dégradé_sans_nom_43" x1="1389.24" y1="1765.38" x2="965.5" y2="486.2" gradientTransform="translate(188.14 -424.45) rotate(7.22)" gradientUnits="userSpaceOnUse"><stop offset="0" stop-color="#fff"/><stop offset="0.45" stop-color="#fdfdfd"/><stop offset="0.61" stop-color="#f6f6f6"/><stop offset="0.73" stop-color="#ebebeb"/><stop offset="0.82" stop-color="#dadada"/><stop offset="0.9" stop-color="#c4c4c4"/><stop offset="0.97" stop-color="#aaaaa9"/><stop offset="1" stop-color="#9d9d9c"/></linearGradient></defs><title>Design light 2</title><g id="Fond"><rect id="Fond_blanc" data-name="Fond blanc" class="cls-1" y="97.24" width="1920" height="1080"/><circle class="cls-2" cx="166.57" cy="969.74" r="160.72"/><circle class="cls-3" cx="445.37" cy="115.37" r="115.37"/><circle class="cls-4" cx="1214.61" cy="840.44" r="673.59"/></g><g id="Points_gris" data-name="Points gris"><g class="cls-5"><circle class="cls-6" cx="24" cy="667.24" r="2"/><circle class="cls-6" cx="54" cy="667.24" r="2"/><circle class="cls-6" cx="84" cy="667.24" r="2"/><circle class="cls-6" cx="114" cy="667.24" r="2"/><circle class="cls-6" cx="144" cy="667.24" r="2"/><circle class="cls-6" cx="174" cy="667.24" r="2"/><circle class="cls-6" cx="204" cy="667.24" r="2"/><circle class="cls-6" cx="234" cy="667.24" r="2"/><circle class="cls-6" cx="264" cy="667.24" r="2"/><circle class="cls-6" cx="24" cy="637.24" r="2"/><circle class="cls-6" cx="54" cy="637.24" r="2"/><circle class="cls-6" cx="84" cy="637.24" r="2"/><circle class="cls-6" cx="114" cy="637.24" r="2"/><circle class="cls-6" cx="144" cy="637.24" r="2"/><circle class="cls-6" cx="174" cy="637.24" r="2"/><circle class="cls-6" cx="204" cy="637.24" r="2"/><circle class="cls-6" cx="234" cy="637.24" r="2"/><circle class="cls-6" cx="264" cy="637.24" r="2"/><circle class="cls-6" cx="24" cy="607.24" r="2"/><circle class="cls-6" cx="54" cy="607.24" r="2"/><circle class="cls-6" cx="84" cy="607.24" r="2"/><circle class="cls-6" cx="114" cy="607.24" r="2"/><circle class="cls-6" cx="144" cy="607.24" r="2"/><circle class="cls-6" cx="174" cy="607.24" r="2"/><circle class="cls-6" cx="204" cy="607.24" r="2"/><circle class="cls-6" cx="234" cy="607.24" r="2"/><circle class="cls-6" cx="264" cy="607.24" r="2"/><circle class="cls-6" cx="24" cy="577.24" r="2"/><circle class="cls-6" cx="54" cy="577.24" r="2"/><circle class="cls-6" cx="84" cy="577.24" r="2"/><circle class="cls-6" cx="114" cy="577.24" r="2"/><circle class="cls-6" cx="144" cy="577.24" r="2"/><circle class="cls-6" cx="174" cy="577.24" r="2"/><circle class="cls-6" cx="204" cy="577.24" r="2"/><circle class="cls-6" cx="234" cy="577.24" r="2"/><circle class="cls-6" cx="264" cy="577.24" r="2"/><circle class="cls-6" cx="24" cy="547.24" r="2"/><circle class="cls-6" cx="54" cy="547.24" r="2"/><circle class="cls-6" cx="84" cy="547.24" r="2"/><circle class="cls-6" cx="114" cy="547.24" r="2"/><circle class="cls-6" cx="144" cy="547.24" r="2"/><circle class="cls-6" cx="174" cy="547.24" r="2"/><circle class="cls-6" cx="204" cy="547.24" r="2"/><circle class="cls-6" cx="234" cy="547.24" r="2"/><circle class="cls-6" cx="264" cy="547.24" r="2"/></g><g class="cls-5"><circle class="cls-6" cx="733" cy="1036.24" r="2"/><circle class="cls-6" cx="763" cy="1036.24" r="2"/><circle class="cls-6" cx="793" cy="1036.24" r="2"/><circle class="cls-6" cx="823" cy="1036.24" r="2"/><circle class="cls-6" cx="853" cy="1036.24" r="2"/><circle class="cls-6" cx="733" cy="1006.24" r="2"/><circle class="cls-6" cx="763" cy="1006.24" r="2"/><circle class="cls-6" cx="793" cy="1006.24" r="2"/><circle class="cls-6" cx="823" cy="1006.24" r="2"/><circle class="cls-6" cx="853" cy="1006.24" r="2"/><circle class="cls-6" cx="733" cy="1155.24" r="2"/><circle class="cls-6" cx="763" cy="1155.24" r="2"/><circle class="cls-6" cx="793" cy="1155.24" r="2"/><circle class="cls-6" cx="823" cy="1155.24" r="2"/><circle class="cls-6" cx="733" cy="976.24" r="2"/><circle class="cls-6" cx="763" cy="976.24" r="2"/><circle class="cls-6" cx="793" cy="976.24" r="2"/><circle class="cls-6" cx="823" cy="976.24" r="2"/><circle class="cls-6" cx="853" cy="976.24" r="2"/><circle class="cls-6" cx="733" cy="1125.24" r="2"/><circle class="cls-6" cx="763" cy="1125.24" r="2"/><circle class="cls-6" cx="793" cy="1125.24" r="2"/><circle class="cls-6" cx="823" cy="1125.24" r="2"/><circle class="cls-6" cx="733" cy="946.24" r="2"/><circle class="cls-6" cx="763" cy="946.24" r="2"/><circle class="cls-6" cx="793" cy="946.24" r="2"/><circle class="cls-6" cx="823" cy="946.24" r="2"/><circle class="cls-6" cx="853" cy="946.24" r="2"/><circle class="cls-6" cx="733" cy="1095.24" r="2"/><circle class="cls-6" cx="763" cy="1095.24" r="2"/><circle class="cls-6" cx="793" cy="1095.24" r="2"/><circle class="cls-6" cx="823" cy="1095.24" r="2"/><circle class="cls-6" cx="733" cy="916.24" r="2"/><circle class="cls-6" cx="763" cy="916.24" r="2"/><circle class="cls-6" cx="793" cy="916.24" r="2"/><circle class="cls-6" cx="823" cy="916.24" r="2"/><circle class="cls-6" cx="853" cy="916.24" r="2"/><circle class="cls-6" cx="733" cy="1065.24" r="2"/><circle class="cls-6" cx="763" cy="1065.24" r="2"/><circle class="cls-6" cx="793" cy="1065.24" r="2"/><circle class="cls-6" cx="823" cy="1065.24" r="2"/><circle class="cls-6" cx="853" cy="1157.24" r="2"/><circle class="cls-6" cx="853" cy="1127.24" r="2"/><circle class="cls-6" cx="853" cy="1097.24" r="2"/><circle class="cls-6" cx="853" cy="1067.24" r="2"/></g></g></svg>