<svg id="Calque_1" data-name="Calque 1" xmlns="http://www.w3.org/2000/svg" xmlns:xlink="http://www.w3.org/1999/xlink" viewBox="0 0 1920 1080"><defs><style>.cls-1{fill:#31438f;}.cls-2{opacity:0.1;fill:url(#Dégradé_sans_nom_4);}.cls-2,.cls-3,.cls-4{isolation:isolate;}.cls-3,.cls-4{opacity:0.2;}.cls-3{fill:url(#Dégradé_sans_nom_2);}.cls-4{fill:url(#Dégradé_sans_nom_3);}.cls-5{fill:#3159a2;}.cls-6{opacity:0.6;}.cls-10,.cls-7{fill:none;stroke-miterlimit:10;}.cls-7{stroke:#fff;stroke-width:2px;}.cls-8{fill:#fff;}.cls-9{fill:#b3b3b3;}.cls-10{stroke:#ecc507;stroke-width:10px;}.cls-11{fill:#d8d8d8;}.cls-12{fill:#30428e;}</style><linearGradient id="Dégradé_sans_nom_4" x1="1464.58" y1="-80.18" x2="876.25" y2="940.01" gradientTransform="matrix(0.98, 0.2, 0.2, -0.98, -45.25, 844.42)" gradientUnits="userSpaceOnUse"><stop offset="0" stop-color="#253887"/><stop offset="0.21" stop-color="#324090" stop-opacity="0.98"/><stop offset="0.42" stop-color="#505ba3" stop-opacity="0.91"/><stop offset="0.64" stop-color="#828abc" stop-opacity="0.79"/><stop offset="0.86" stop-color="#c8cce2" stop-opacity="0.63"/><stop offset="1" stop-color="#fff" stop-opacity="0.5"/></linearGradient><linearGradient id="Dégradé_sans_nom_2" x1="342.63" y1="1099.02" x2="535.03" y2="987.95" gradientTransform="matrix(1, 0, 0, -1, 0, 1082)" gradientUnits="userSpaceOnUse"><stop offset="0" stop-color="#253887"/><stop offset="0.32" stop-color="#2d3c8e" stop-opacity="0.98"/><stop offset="0.51" stop-color="#424e9b" stop-opacity="0.9"/><stop offset="0.67" stop-color="#666fad" stop-opacity="0.77"/><stop offset="0.81" stop-color="#989dc7" stop-opacity="0.59"/><stop offset="0.94" stop-color="#d7dae9" stop-opacity="0.35"/><stop offset="1" stop-color="#fff" stop-opacity="0.2"/></linearGradient><linearGradient id="Dégradé_sans_nom_3" x1="86.2" y1="70.29" x2="246.94" y2="348.71" gradientTransform="matrix(1, 0, 0, -1, 0, 1082)" gradientUnits="userSpaceOnUse"><stop offset="0.01" stop-color="#243d7e"/><stop offset="0.33" stop-color="#2b4383" stop-opacity="0.97"/><stop offset="0.53" stop-color="#445791" stop-opacity="0.89"/><stop offset="0.69" stop-color="#6878a7" stop-opacity="0.74"/><stop offset="0.84" stop-color="#9ea9c5" stop-opacity="0.53"/><stop offset="0.97" stop-color="#e5e8ed" stop-opacity="0.27"/><stop offset="0.99" stop-color="#f6f6f6" stop-opacity="0.2"/></linearGradient></defs><title>Fond carousel</title><g id="Fond"><rect id="Fond_bleu_uni" data-name="Fond bleu uni" class="cls-1" width="1920" height="1080"/><path class="cls-2" d="M844.53,177.94C1155.32-26.43,1573,59.84,1777.32,370.64c144.92,220.39,143.7,494.5,19.9,708.19-416.57,0-1120.69.75-1164.7.75C453.4,772.57,544,375.56,844.53,177.94Z"/><path class="cls-3" d="M560.75,18.7a114.81,114.81,0,0,1-229.61,0c.26-9,1.47-18.37,1.47-18.37L559.18.41A68,68,0,0,1,560.44,8,66.69,66.69,0,0,1,560.75,18.7Z"/><circle class="cls-4" cx="166.57" cy="872.5" r="160.72"/></g><g id="Points_gris" data-name="Points gris"><circle class="cls-5" cx="24" cy="570" r="2"/><circle class="cls-5" cx="54" cy="570" r="2"/><circle class="cls-5" cx="84" cy="570" r="2"/><circle class="cls-5" cx="114" cy="570" r="2"/><circle class="cls-5" cx="144" cy="570" r="2"/><circle class="cls-5" cx="174" cy="570" r="2"/><circle class="cls-5" cx="204" cy="570" r="2"/><circle class="cls-5" cx="234" cy="570" r="2"/><circle class="cls-5" cx="264" cy="570" r="2"/><circle class="cls-5" cx="24" cy="540" r="2"/><circle class="cls-5" cx="54" cy="540" r="2"/><circle class="cls-5" cx="84" cy="540" r="2"/><circle class="cls-5" cx="114" cy="540" r="2"/><circle class="cls-5" cx="144" cy="540" r="2"/><circle class="cls-5" cx="174" cy="540" r="2"/><circle class="cls-5" cx="204" cy="540" r="2"/><circle class="cls-5" cx="234" cy="540" r="2"/><circle class="cls-5" cx="264" cy="540" r="2"/><circle class="cls-5" cx="24" cy="510" r="2"/><circle class="cls-5" cx="54" cy="510" r="2"/><circle class="cls-5" cx="84" cy="510" r="2"/><circle class="cls-5" cx="114" cy="510" r="2"/><circle class="cls-5" cx="144" cy="510" r="2"/><circle class="cls-5" cx="174" cy="510" r="2"/><circle class="cls-5" cx="204" cy="510" r="2"/><circle class="cls-5" cx="234" cy="510" r="2"/><circle class="cls-5" cx="264" cy="510" r="2"/><circle class="cls-5" cx="24" cy="480" r="2"/><circle class="cls-5" cx="54" cy="480" r="2"/><circle class="cls-5" cx="84" cy="480" r="2"/><circle class="cls-5" cx="114" cy="480" r="2"/><circle class="cls-5" cx="144" cy="480" r="2"/><circle class="cls-5" cx="174" cy="480" r="2"/><circle class="cls-5" cx="204" cy="480" r="2"/><circle class="cls-5" cx="234" cy="480" r="2"/><circle class="cls-5" cx="264" cy="480" r="2"/><circle class="cls-5" cx="24" cy="450" r="2"/><circle class="cls-5" cx="54" cy="450" r="2"/><circle class="cls-5" cx="84" cy="450" r="2"/><circle class="cls-5" cx="114" cy="450" r="2"/><circle class="cls-5" cx="144" cy="450" r="2"/><circle class="cls-5" cx="174" cy="450" r="2"/><circle class="cls-5" cx="204" cy="450" r="2"/><circle class="cls-5" cx="234" cy="450" r="2"/><circle class="cls-5" cx="264" cy="450" r="2"/><g class="cls-6"><circle class="cls-5" cx="733" cy="939" r="2"/><circle class="cls-5" cx="763" cy="939" r="2"/><circle class="cls-5" cx="793" cy="939" r="2"/><circle class="cls-5" cx="823" cy="939" r="2"/><circle class="cls-5" cx="853" cy="939" r="2"/><circle class="cls-5" cx="733" cy="909" r="2"/><circle class="cls-5" cx="763" cy="909" r="2"/><circle class="cls-5" cx="793" cy="909" r="2"/><circle class="cls-5" cx="823" cy="909" r="2"/><circle class="cls-5" cx="853" cy="909" r="2"/><circle class="cls-5" cx="733" cy="1058" r="2"/><circle class="cls-5" cx="763" cy="1058" r="2"/><circle class="cls-5" cx="793" cy="1058" r="2"/><circle class="cls-5" cx="823" cy="1058" r="2"/><circle class="cls-5" cx="733" cy="879" r="2"/><circle class="cls-5" cx="763" cy="879" r="2"/><circle class="cls-5" cx="793" cy="879" r="2"/><circle class="cls-5" cx="823" cy="879" r="2"/><circle class="cls-5" cx="853" cy="879" r="2"/><circle class="cls-5" cx="733" cy="1028" r="2"/><circle class="cls-5" cx="763" cy="1028" r="2"/><circle class="cls-5" cx="793" cy="1028" r="2"/><circle class="cls-5" cx="823" cy="1028" r="2"/><circle class="cls-5" cx="733" cy="849" r="2"/><circle class="cls-5" cx="763" cy="849" r="2"/><circle class="cls-5" cx="793" cy="849" r="2"/><circle class="cls-5" cx="823" cy="849" r="2"/><circle class="cls-5" cx="853" cy="849" r="2"/><circle class="cls-5" cx="733" cy="998" r="2"/><circle class="cls-5" cx="763" cy="998" r="2"/><circle class="cls-5" cx="793" cy="998" r="2"/><circle class="cls-5" cx="823" cy="998" r="2"/><circle class="cls-5" cx="733" cy="819" r="2"/><circle class="cls-5" cx="763" cy="819" r="2"/><circle class="cls-5" cx="793" cy="819" r="2"/><circle class="cls-5" cx="823" cy="819" r="2"/><circle class="cls-5" cx="853" cy="819" r="2"/><circle class="cls-5" cx="733" cy="968" r="2"/><circle class="cls-5" cx="763" cy="968" r="2"/><circle class="cls-5" cx="793" cy="968" r="2"/><circle class="cls-5" cx="823" cy="968" r="2"/><circle class="cls-5" cx="853" cy="1060" r="2"/><circle class="cls-5" cx="853" cy="1030" r="2"/><circle class="cls-5" cx="853" cy="1000" r="2"/><circle class="cls-5" cx="853" cy="970" r="2"/></g></g><path id="Bande_blanche" data-name="Bande blanche" class="cls-7" d="M1231.36,115.93H1825V779.87H95V115.93H692.15"/><rect id="Bas_blanc" data-name="Bas blanc" class="cls-8" y="780" width="1920" height="300"/><circle class="cls-9" cx="72.5" cy="852.5" r="2.5"/><circle class="cls-9" cx="72.5" cy="867.5" r="2.5"/><circle class="cls-9" cx="72.5" cy="882.5" r="2.5"/><circle class="cls-9" cx="72.5" cy="897.5" r="2.5"/><circle class="cls-9" cx="87.5" cy="852.5" r="2.5"/><circle class="cls-9" cx="87.5" cy="867.5" r="2.5"/><circle class="cls-9" cx="102.5" cy="867.5" r="2.5"/><circle class="cls-9" cx="117.5" cy="867.5" r="2.5"/><circle class="cls-9" cx="87.5" cy="882.5" r="2.5"/><circle class="cls-9" cx="102.5" cy="882.5" r="2.5"/><circle class="cls-9" cx="117.5" cy="882.5" r="2.5"/><circle class="cls-9" cx="87.5" cy="897.5" r="2.5"/><circle class="cls-9" cx="102.5" cy="897.5" r="2.5"/><circle class="cls-9" cx="117.5" cy="897.5" r="2.5"/><circle class="cls-9" cx="102.5" cy="852.5" r="2.5"/><circle class="cls-9" cx="117.5" cy="852.5" r="2.5"/><circle class="cls-9" cx="1802.5" cy="852.5" r="2.5"/><circle class="cls-9" cx="1802.5" cy="867.5" r="2.5"/><circle class="cls-9" cx="1802.5" cy="882.5" r="2.5"/><circle class="cls-9" cx="1802.5" cy="897.5" r="2.5"/><circle class="cls-9" cx="1817.5" cy="852.5" r="2.5"/><circle class="cls-9" cx="1817.5" cy="867.5" r="2.5"/><circle class="cls-9" cx="1832.5" cy="867.5" r="2.5"/><circle class="cls-9" cx="1847.5" cy="867.5" r="2.5"/><circle class="cls-9" cx="1817.5" cy="882.5" r="2.5"/><circle class="cls-9" cx="1832.5" cy="882.5" r="2.5"/><circle class="cls-9" cx="1847.5" cy="882.5" r="2.5"/><circle class="cls-9" cx="1817.5" cy="897.5" r="2.5"/><circle class="cls-9" cx="1832.5" cy="897.5" r="2.5"/><circle class="cls-9" cx="1847.5" cy="897.5" r="2.5"/><circle class="cls-9" cx="1832.5" cy="852.5" r="2.5"/><circle class="cls-9" cx="1847.5" cy="852.5" r="2.5"/><line id="Trait_jaune" data-name="Trait jaune" class="cls-10" y1="780" x2="1920" y2="780"/><path class="cls-11" d="M16.64,1075V930.41l106.79-88.83c70-45.28,162.8-26,207,38.75,40.34,59.19,31,143-24.58,194.67C209.42,1074.37,113,1075.63,16.64,1075Z"/><path class="cls-12" d="M0,1080V935.41l106.79-88.83c70.05-45.28,162.8-26,207,38.75,40.34,59.19,31,143.05-24.57,194.67C192.78,1079.37,96.39,1080.63,0,1080Z"/></svg>