<svg id="Calque_1" data-name="Calque 1" xmlns="http://www.w3.org/2000/svg" xmlns:xlink="http://www.w3.org/1999/xlink" viewBox="0 0 1920 1080"><defs><style>.cls-1{fill:#31438f;}.cls-2{fill:#fff;}.cls-3{opacity:0.1;fill:url(#Dégradé_sans_nom_44);}.cls-3,.cls-4,.cls-5{isolation:isolate;}.cls-4,.cls-5{opacity:0.2;}.cls-4{fill:url(#Dégradé_sans_nom_33);}.cls-5{fill:url(#Dégradé_sans_nom_3);}.cls-6{fill:#3159a2;}.cls-7{opacity:0.6;}</style><linearGradient id="Dégradé_sans_nom_44" x1="1464.5" y1="-80.23" x2="876.6" y2="939.2" gradientTransform="matrix(0.98, 0.2, 0.2, -0.98, -45.25, 844.42)" gradientUnits="userSpaceOnUse"><stop offset="0" stop-color="#253887"/><stop offset="0.21" stop-color="#324090" stop-opacity="0.98"/><stop offset="0.42" stop-color="#505ba3" stop-opacity="0.91"/><stop offset="0.64" stop-color="#828abc" stop-opacity="0.79"/><stop offset="0.86" stop-color="#c8cce2" stop-opacity="0.63"/><stop offset="1" stop-color="#9e9d9c" stop-opacity="0.5"/></linearGradient><linearGradient id="Dégradé_sans_nom_33" x1="342.43" y1="1098.61" x2="535.21" y2="987.31" gradientTransform="matrix(1, 0, 0, -1, 0, 1082)" gradientUnits="userSpaceOnUse"><stop offset="0" stop-color="#fff"/><stop offset="0.31" stop-color="#fdfdfd"/><stop offset="0.49" stop-color="#f4f3f4"/><stop offset="0.64" stop-color="#e7e6e6"/><stop offset="0.78" stop-color="#d2d2d2"/><stop offset="0.9" stop-color="#b8b8b8"/><stop offset="1" stop-color="#9e9d9c"/></linearGradient><linearGradient id="Dégradé_sans_nom_3" x1="86.25" y1="70.19" x2="246.89" y2="348.42" gradientTransform="matrix(1, 0, 0, -1, 0, 1082)" gradientUnits="userSpaceOnUse"><stop offset="0.01" stop-color="#243d7e"/><stop offset="0.33" stop-color="#2b4383" stop-opacity="0.97"/><stop offset="0.53" stop-color="#445791" stop-opacity="0.89"/><stop offset="0.69" stop-color="#6878a7" stop-opacity="0.74"/><stop offset="0.84" stop-color="#9ea9c5" stop-opacity="0.53"/><stop offset="0.97" stop-color="#e5e8ed" stop-opacity="0.27"/><stop offset="0.99" stop-color="#f6f6f6" stop-opacity="0.2"/></linearGradient></defs><title>Fond Bleu &amp;amp; Blanc</title><g id="Fond"><rect id="Fond_bleu_uni" data-name="Fond bleu uni" class="cls-1" y="1.02" width="1920" height="1078.98"/><path class="cls-2" d="M1920,260Q949.26,436.17,0,260V0H1920Z"/><path class="cls-3" d="M844.53,178.79C1155.32-25.38,1573,60.8,1777.32,371.31c144.92,220.18,143.7,494,19.9,707.52-416.57,0-1120.69.75-1164.7.75C453.4,772.86,544,376.23,844.53,178.79Z"/><path class="cls-4" d="M560.75,19.7a114.81,114.81,0,0,1-229.61,0c0-6.24-3.37-14.7,1.47-18.35C364,1.35,564.49,5.86,559.18.71,554.69-3.65,560.75,13.23,560.75,19.7Z"/><ellipse class="cls-5" cx="166.57" cy="872.7" rx="160.72" ry="160.57"/></g><g id="Points_gris" data-name="Points gris"><circle class="cls-6" cx="24" cy="570" r="2"/><circle class="cls-6" cx="54" cy="570" r="2"/><circle class="cls-6" cx="84" cy="570" r="2"/><circle class="cls-6" cx="114" cy="570" r="2"/><circle class="cls-6" cx="144" cy="570" r="2"/><circle class="cls-6" cx="174" cy="570" r="2"/><circle class="cls-6" cx="204" cy="570" r="2"/><circle class="cls-6" cx="234" cy="570" r="2"/><circle class="cls-6" cx="264" cy="570" r="2"/><circle class="cls-6" cx="24" cy="540" r="2"/><circle class="cls-6" cx="54" cy="540" r="2"/><circle class="cls-6" cx="84" cy="540" r="2"/><circle class="cls-6" cx="114" cy="540" r="2"/><circle class="cls-6" cx="144" cy="540" r="2"/><circle class="cls-6" cx="174" cy="540" r="2"/><circle class="cls-6" cx="204" cy="540" r="2"/><circle class="cls-6" cx="234" cy="540" r="2"/><circle class="cls-6" cx="264" cy="540" r="2"/><circle class="cls-6" cx="24" cy="510" r="2"/><circle class="cls-6" cx="54" cy="510" r="2"/><circle class="cls-6" cx="84" cy="510" r="2"/><circle class="cls-6" cx="114" cy="510" r="2"/><circle class="cls-6" cx="144" cy="510" r="2"/><circle class="cls-6" cx="174" cy="510" r="2"/><circle class="cls-6" cx="204" cy="510" r="2"/><circle class="cls-6" cx="234" cy="510" r="2"/><circle class="cls-6" cx="264" cy="510" r="2"/><circle class="cls-6" cx="24" cy="480" r="2"/><circle class="cls-6" cx="54" cy="480" r="2"/><circle class="cls-6" cx="84" cy="480" r="2"/><circle class="cls-6" cx="114" cy="480" r="2"/><circle class="cls-6" cx="144" cy="480" r="2"/><circle class="cls-6" cx="174" cy="480" r="2"/><circle class="cls-6" cx="204" cy="480" r="2"/><circle class="cls-6" cx="234" cy="480" r="2"/><circle class="cls-6" cx="264" cy="480" r="2"/><circle class="cls-6" cx="24" cy="450" r="2"/><circle class="cls-6" cx="54" cy="450" r="2"/><circle class="cls-6" cx="84" cy="450" r="2"/><circle class="cls-6" cx="114" cy="450" r="2"/><circle class="cls-6" cx="144" cy="450" r="2"/><circle class="cls-6" cx="174" cy="450" r="2"/><circle class="cls-6" cx="204" cy="450" r="2"/><circle class="cls-6" cx="234" cy="450" r="2"/><circle class="cls-6" cx="264" cy="450" r="2"/><g class="cls-7"><circle class="cls-6" cx="733" cy="939" r="2"/><circle class="cls-6" cx="763" cy="939" r="2"/><circle class="cls-6" cx="793" cy="939" r="2"/><circle class="cls-6" cx="823" cy="939" r="2"/><circle class="cls-6" cx="853" cy="939" r="2"/><circle class="cls-6" cx="733" cy="909" r="2"/><circle class="cls-6" cx="763" cy="909" r="2"/><circle class="cls-6" cx="793" cy="909" r="2"/><circle class="cls-6" cx="823" cy="909" r="2"/><circle class="cls-6" cx="853" cy="909" r="2"/><circle class="cls-6" cx="733" cy="1058" r="2"/><circle class="cls-6" cx="763" cy="1058" r="2"/><circle class="cls-6" cx="793" cy="1058" r="2"/><circle class="cls-6" cx="823" cy="1058" r="2"/><circle class="cls-6" cx="733" cy="879" r="2"/><circle class="cls-6" cx="763" cy="879" r="2"/><circle class="cls-6" cx="793" cy="879" r="2"/><circle class="cls-6" cx="823" cy="879" r="2"/><circle class="cls-6" cx="853" cy="879" r="2"/><circle class="cls-6" cx="733" cy="1028" r="2"/><circle class="cls-6" cx="763" cy="1028" r="2"/><circle class="cls-6" cx="793" cy="1028" r="2"/><circle class="cls-6" cx="823" cy="1028" r="2"/><circle class="cls-6" cx="733" cy="849" r="2"/><circle class="cls-6" cx="763" cy="849" r="2"/><circle class="cls-6" cx="793" cy="849" r="2"/><circle class="cls-6" cx="823" cy="849" r="2"/><circle class="cls-6" cx="853" cy="849" r="2"/><circle class="cls-6" cx="733" cy="998" r="2"/><circle class="cls-6" cx="763" cy="998" r="2"/><circle class="cls-6" cx="793" cy="998" r="2"/><circle class="cls-6" cx="823" cy="998" r="2"/><circle class="cls-6" cx="733" cy="819" r="2"/><circle class="cls-6" cx="763" cy="819" r="2"/><circle class="cls-6" cx="793" cy="819" r="2"/><circle class="cls-6" cx="823" cy="819" r="2"/><circle class="cls-6" cx="853" cy="819" r="2"/><circle class="cls-6" cx="733" cy="968" r="2"/><circle class="cls-6" cx="763" cy="968" r="2"/><circle class="cls-6" cx="793" cy="968" r="2"/><circle class="cls-6" cx="823" cy="968" r="2"/><circle class="cls-6" cx="853" cy="1060" r="2"/><circle class="cls-6" cx="853" cy="1030" r="2"/><circle class="cls-6" cx="853" cy="1000" r="2"/><circle class="cls-6" cx="853" cy="970" r="2"/></g></g></svg>