<svg xmlns="http://www.w3.org/2000/svg" xmlns:xlink="http://www.w3.org/1999/xlink" viewBox="0 0 1920 1080"><defs><style>.cls-1{fill:#fff;}.cls-2{opacity:0.1;fill:url(#Dégradé_sans_nom_43);}.cls-3,.cls-4{opacity:0.2;}.cls-3{fill:url(#Dégradé_sans_nom_40);}.cls-4{fill:url(#Dégradé_sans_nom_40-2);}.cls-5{opacity:0.6;}.cls-6{fill:#ddd;}</style><linearGradient id="Dégradé_sans_nom_43" x1="1465.11" y1="1161.97" x2="876.16" y2="141.89" gradientTransform="translate(173.39 -215.03) rotate(11.67)" gradientUnits="userSpaceOnUse"><stop offset="0" stop-color="#fff"/><stop offset="0.45" stop-color="#fdfdfd"/><stop offset="0.61" stop-color="#f6f6f6"/><stop offset="0.73" stop-color="#ebebeb"/><stop offset="0.82" stop-color="#dadada"/><stop offset="0.9" stop-color="#c4c4c4"/><stop offset="0.97" stop-color="#aaaaa9"/><stop offset="1" stop-color="#9d9d9c"/></linearGradient><linearGradient id="Dégradé_sans_nom_40" x1="342.18" y1="-17.19" x2="534.99" y2="94.12" gradientUnits="userSpaceOnUse"><stop offset="0" stop-color="#fff"/><stop offset="0.31" stop-color="#fcfcfc"/><stop offset="0.49" stop-color="#f4f4f4"/><stop offset="0.64" stop-color="#e6e6e6"/><stop offset="0.78" stop-color="#d2d2d2"/><stop offset="0.9" stop-color="#b8b8b8"/><stop offset="1" stop-color="#9d9d9c"/></linearGradient><linearGradient id="Dégradé_sans_nom_40-2" x1="86.2" y1="1011.71" x2="246.95" y2="733.28" xlink:href="#Dégradé_sans_nom_40"/></defs><title>Fond blanc</title><g id="Fond"><rect id="Fond_blanc" data-name="Fond blanc" class="cls-1" width="1920" height="1080"/><path class="cls-2" d="M844.53,177.94C1155.32-26.43,1573,59.84,1777.32,370.64c144.92,220.39,143.7,494.5,19.9,708.19-416.57,0-1120.69.75-1164.7.75C453.4,772.57,544,375.56,844.53,177.94Z"/><path class="cls-3" d="M560.75,18.7a114.81,114.81,0,0,1-229.61,0c0-6.25-3.37-14.72,1.47-18.37C364,.33,564.49,4.84,559.18-.31,554.69-4.68,560.75,12.22,560.75,18.7Z"/><circle class="cls-4" cx="166.57" cy="872.5" r="160.72"/></g><g id="Points_gris" data-name="Points gris"><g class="cls-5"><circle class="cls-6" cx="24" cy="570" r="2"/><circle class="cls-6" cx="54" cy="570" r="2"/><circle class="cls-6" cx="84" cy="570" r="2"/><circle class="cls-6" cx="114" cy="570" r="2"/><circle class="cls-6" cx="144" cy="570" r="2"/><circle class="cls-6" cx="174" cy="570" r="2"/><circle class="cls-6" cx="204" cy="570" r="2"/><circle class="cls-6" cx="234" cy="570" r="2"/><circle class="cls-6" cx="264" cy="570" r="2"/><circle class="cls-6" cx="24" cy="540" r="2"/><circle class="cls-6" cx="54" cy="540" r="2"/><circle class="cls-6" cx="84" cy="540" r="2"/><circle class="cls-6" cx="114" cy="540" r="2"/><circle class="cls-6" cx="144" cy="540" r="2"/><circle class="cls-6" cx="174" cy="540" r="2"/><circle class="cls-6" cx="204" cy="540" r="2"/><circle class="cls-6" cx="234" cy="540" r="2"/><circle class="cls-6" cx="264" cy="540" r="2"/><circle class="cls-6" cx="24" cy="510" r="2"/><circle class="cls-6" cx="54" cy="510" r="2"/><circle class="cls-6" cx="84" cy="510" r="2"/><circle class="cls-6" cx="114" cy="510" r="2"/><circle class="cls-6" cx="144" cy="510" r="2"/><circle class="cls-6" cx="174" cy="510" r="2"/><circle class="cls-6" cx="204" cy="510" r="2"/><circle class="cls-6" cx="234" cy="510" r="2"/><circle class="cls-6" cx="264" cy="510" r="2"/><circle class="cls-6" cx="24" cy="480" r="2"/><circle class="cls-6" cx="54" cy="480" r="2"/><circle class="cls-6" cx="84" cy="480" r="2"/><circle class="cls-6" cx="114" cy="480" r="2"/><circle class="cls-6" cx="144" cy="480" r="2"/><circle class="cls-6" cx="174" cy="480" r="2"/><circle class="cls-6" cx="204" cy="480" r="2"/><circle class="cls-6" cx="234" cy="480" r="2"/><circle class="cls-6" cx="264" cy="480" r="2"/><circle class="cls-6" cx="24" cy="450" r="2"/><circle class="cls-6" cx="54" cy="450" r="2"/><circle class="cls-6" cx="84" cy="450" r="2"/><circle class="cls-6" cx="114" cy="450" r="2"/><circle class="cls-6" cx="144" cy="450" r="2"/><circle class="cls-6" cx="174" cy="450" r="2"/><circle class="cls-6" cx="204" cy="450" r="2"/><circle class="cls-6" cx="234" cy="450" r="2"/><circle class="cls-6" cx="264" cy="450" r="2"/></g><g class="cls-5"><circle class="cls-6" cx="733" cy="939" r="2"/><circle class="cls-6" cx="763" cy="939" r="2"/><circle class="cls-6" cx="793" cy="939" r="2"/><circle class="cls-6" cx="823" cy="939" r="2"/><circle class="cls-6" cx="853" cy="939" r="2"/><circle class="cls-6" cx="733" cy="909" r="2"/><circle class="cls-6" cx="763" cy="909" r="2"/><circle class="cls-6" cx="793" cy="909" r="2"/><circle class="cls-6" cx="823" cy="909" r="2"/><circle class="cls-6" cx="853" cy="909" r="2"/><circle class="cls-6" cx="733" cy="1058" r="2"/><circle class="cls-6" cx="763" cy="1058" r="2"/><circle class="cls-6" cx="793" cy="1058" r="2"/><circle class="cls-6" cx="823" cy="1058" r="2"/><circle class="cls-6" cx="733" cy="879" r="2"/><circle class="cls-6" cx="763" cy="879" r="2"/><circle class="cls-6" cx="793" cy="879" r="2"/><circle class="cls-6" cx="823" cy="879" r="2"/><circle class="cls-6" cx="853" cy="879" r="2"/><circle class="cls-6" cx="733" cy="1028" r="2"/><circle class="cls-6" cx="763" cy="1028" r="2"/><circle class="cls-6" cx="793" cy="1028" r="2"/><circle class="cls-6" cx="823" cy="1028" r="2"/><circle class="cls-6" cx="733" cy="849" r="2"/><circle class="cls-6" cx="763" cy="849" r="2"/><circle class="cls-6" cx="793" cy="849" r="2"/><circle class="cls-6" cx="823" cy="849" r="2"/><circle class="cls-6" cx="853" cy="849" r="2"/><circle class="cls-6" cx="733" cy="998" r="2"/><circle class="cls-6" cx="763" cy="998" r="2"/><circle class="cls-6" cx="793" cy="998" r="2"/><circle class="cls-6" cx="823" cy="998" r="2"/><circle class="cls-6" cx="733" cy="819" r="2"/><circle class="cls-6" cx="763" cy="819" r="2"/><circle class="cls-6" cx="793" cy="819" r="2"/><circle class="cls-6" cx="823" cy="819" r="2"/><circle class="cls-6" cx="853" cy="819" r="2"/><circle class="cls-6" cx="733" cy="968" r="2"/><circle class="cls-6" cx="763" cy="968" r="2"/><circle class="cls-6" cx="793" cy="968" r="2"/><circle class="cls-6" cx="823" cy="968" r="2"/><circle class="cls-6" cx="853" cy="1060" r="2"/><circle class="cls-6" cx="853" cy="1030" r="2"/><circle class="cls-6" cx="853" cy="1000" r="2"/><circle class="cls-6" cx="853" cy="970" r="2"/></g></g></svg>