<svg xmlns="http://www.w3.org/2000/svg" viewBox="0 0 100 100"><defs><style>.cls-1{fill:#B3B3B3;}</style></defs><title>OLO_Timing</title><g id="Logo_personalisé" data-name="Logo personalisé"><g id="Timing"><rect class="cls-1" x="12" width="76" height="6"/><rect class="cls-1" x="12" y="94" width="76" height="6"/><path class="cls-1" d="M60.57,55.19c-2.93-4.12-1.86-7.34,0-10.39C72.76,33.17,81.08,26.84,82,6H17.87c1,22.68,12.28,29.1,21.82,39.21q3.23,5.49-.38,10.21C26.84,68.61,19.94,70.4,18.06,94H82C81.56,77.77,77.87,71,60.57,55.19ZM26.28,19.57C24.77,16,24,11.34,23.72,6H76.26A43,43,0,0,1,73.8,19.57ZM47.06,72.11c-8.3.47-14.67,3.89-20.5,8.13a33.32,33.32,0,0,1,8.79-12.67C40.93,62.26,46.7,58.35,47.06,50Zm6,0V50c.36,8.35,6.12,12.26,11.71,17.57a33.32,33.32,0,0,1,8.79,12.67C67.69,76,61.32,72.58,53,72.11Z"/></g></g></svg>