<svg id="Logo_personalisé" data-name="Logo personalisé" xmlns="http://www.w3.org/2000/svg" viewBox="0 0 100 100"><defs><style>.cls-1{fill:#B3B3B3;}</style></defs><title>OLO_Contrat</title><path id="Contrat" class="cls-1" d="M87.83,23.91,66.77,2.68A9.55,9.55,0,0,0,60.14,0H19.73A9.53,9.53,0,0,0,10.2,9.53V90.47A9.53,9.53,0,0,0,19.73,100H80.27a9.53,9.53,0,0,0,9.53-9.53V30C89.8,27.43,89.69,25.71,87.83,23.91ZM27,49.53a3,3,0,0,1,3-3H70.4a3,3,0,0,1,3,3v1.13a3,3,0,0,1-3,3H30a3,3,0,0,1-3-3ZM73.87,80.42a3,3,0,0,1-3.05,3H29.53a3,3,0,0,1-3.05-3V79.26a3.06,3.06,0,0,1,3.05-3.05H70.82a3,3,0,0,1,3.05,3.05Zm0-14.88a3,3,0,0,1-3.05,3H29.53a3,3,0,0,1-3.05-3V64.39a3,3,0,0,1,3.05-3H70.82a3,3,0,0,1,3.05,3Zm7.06-35.78H67.31a7.14,7.14,0,0,1-7.14-7.19l.1-13.47a1.05,1.05,0,0,1,1.8-.74L81.67,28A1.05,1.05,0,0,1,80.93,29.76Z"/></svg>