<svg id="Calque_1" data-name="Calque 1" xmlns="http://www.w3.org/2000/svg" viewBox="0 0 100 100"><defs><style>.cls-1{fill:#B3B3B3;}</style></defs><title>OLO_Update</title><path class="cls-1" d="M100,48C98.07-2.82,42.63-13.71,12.06,18.11a1.34,1.34,0,0,1-2.25-.55L6.37,6.24a1.34,1.34,0,0,0-2.62.24L.19,38.06a1.34,1.34,0,0,0,1.47,1.49L35.85,36a1.34,1.34,0,0,0,.52-2.51l-12.82-7.2a1.34,1.34,0,0,1-.16-2.24C54.31-.15,77.9,13.75,97.42,48.7A1.35,1.35,0,0,0,100,48Z"/><path class="cls-1" d="M.05,52C1.89,102.82,57.37,113.73,88,81.88a1.32,1.32,0,0,1,2.22.54l3.46,11.39a1.34,1.34,0,0,0,2.61-.24l3.56-31.64a1.33,1.33,0,0,0-1.46-1.48L64.11,64a1.33,1.33,0,0,0-.51,2.49l12.87,7.23a1.34,1.34,0,0,1,.18,2.21c-31,24.27-54.56,10.36-74.09-24.64A1.34,1.34,0,0,0,.05,52Z"/></svg>