<svg id="Calque_1" data-name="Calque 1" xmlns="http://www.w3.org/2000/svg" viewBox="0 0 712.47 170"><defs><style>.cls-1{fill:none;stroke:#fff;stroke-miterlimit:10;stroke-width:2px;}.cls-2{fill:#fff;}.cls-3{fill:#e8c40f;}.cls-4{fill:#30428e;}</style></defs><title>Slogan company</title><path class="cls-1" d="M2.85,68.72V10.13h28.2a34.45,34.45,0,0,1,14.19,2.68,21,21,0,0,1,9.25,7.66,20.94,20.94,0,0,1,3.27,11.76,20.7,20.7,0,0,1-3.27,11.71,21.3,21.3,0,0,1-9.25,7.66,34,34,0,0,1-14.19,2.72H22.58l0,14.4ZM22.58,39.09H29.8q4.1,0,6.07-1.84a6.55,6.55,0,0,0,2-5,6.57,6.57,0,0,0-2-5c-1.32-1.22-3.34-1.84-6.07-1.84l-7.2-.1Z"/><path class="cls-1" d="M64.45,68.72V6.61H83.37V68.72Z"/><path class="cls-1" d="M170.67,69.56a31.17,31.17,0,0,1-14-3,23.43,23.43,0,0,1-9.58-8.41,22.27,22.27,0,0,1-3.48-12.34,22.08,22.08,0,0,1,3.48-12.31,23.56,23.56,0,0,1,9.58-8.37,31.17,31.17,0,0,1,14-3A27.1,27.1,0,0,1,185,25.7a18.65,18.65,0,0,1,8.2,10l-14.64,7.2a10.81,10.81,0,0,0-3.48-4.61,7.69,7.69,0,0,0-4.48-1.42,7.85,7.85,0,0,0-3.89,1,7.06,7.06,0,0,0-2.84,3,10.5,10.5,0,0,0-1,5,10.79,10.79,0,0,0,1,5,7,7,0,0,0,2.84,3,7.85,7.85,0,0,0,3.89,1,7.69,7.69,0,0,0,4.48-1.42,10.77,10.77,0,0,0,3.48-4.6L193.18,56A18.65,18.65,0,0,1,185,66,27.1,27.1,0,0,1,170.67,69.56Z"/><path class="cls-1" d="M249.68,68.72V57.84l18.95-21.1H250.35V22.93h42.11V33.82L273.54,54.88l19.84,0V68.72Z"/><path class="cls-2" d="M324.18,68.72V6.61h18.91V68.72Z"/><path class="cls-2" d="M350.21,39.93l7-23.52L360,27a11.37,11.37,0,0,1-7.95-2.8,9.8,9.8,0,0,1-3.1-7.66,10.14,10.14,0,0,1,3.14-7.83,12.3,12.3,0,0,1,15.82,0,10.14,10.14,0,0,1,3.14,7.83,17.28,17.28,0,0,1-.21,2.68,18.07,18.07,0,0,1-.88,3.22c-.45,1.26-1.17,2.94-2.17,5.06l-5.86,12.48Z"/><path class="cls-2" d="M408.72,22.1a21.09,21.09,0,0,1,9.54,2.13A15.52,15.52,0,0,1,425,30.89q2.46,4.52,2.46,11.71V68.72H408.55V45.87q0-4.27-1.51-6.07a5.06,5.06,0,0,0-4.1-1.8,7.36,7.36,0,0,0-3.56.88,6.15,6.15,0,0,0-2.59,2.89,12.78,12.78,0,0,0-1,5.44V68.72H376.91V6.61h18.92V36.33l-4.53-3.85a18.35,18.35,0,0,1,7.25-7.79A20.19,20.19,0,0,1,408.72,22.1Z"/><path class="cls-2" d="M454.75,69.56a21.47,21.47,0,0,1-9.83-2.22,15.79,15.79,0,0,1-6.91-7q-2.5-4.72-2.51-12.18V22.93h18.92V45q0,4.84,1.59,6.78a5.35,5.35,0,0,0,4.35,1.92,6,6,0,0,0,3.14-.88,6.22,6.22,0,0,0,2.38-2.93,13.16,13.16,0,0,0,.92-5.39V22.93h18.92V68.72h-18V55.49l3.6,3.6a16.6,16.6,0,0,1-6.9,7.91A19.14,19.14,0,0,1,454.75,69.56Z"/><path class="cls-2" d="M554.69,22.1A20.09,20.09,0,0,1,564,24.23a15.13,15.13,0,0,1,6.53,6.66q2.38,4.52,2.39,11.71V68.72H554V45.87q0-4.27-1.42-6.07a4.49,4.49,0,0,0-3.68-1.8,5.56,5.56,0,0,0-3,.84,5.7,5.7,0,0,0-2.13,2.63,12.38,12.38,0,0,0-.8,4.9V68.72H524.06V45.87q0-4.27-1.34-6.07A4.44,4.44,0,0,0,519,38a5.53,5.53,0,0,0-3,.84,5.66,5.66,0,0,0-2.14,2.63,12.4,12.4,0,0,0-.79,4.9V68.72H494.09V22.93h18V36.08l-3.69-3.69a18,18,0,0,1,7-7.74,18.85,18.85,0,0,1,9.71-2.55,18.53,18.53,0,0,1,10.67,3.14q4.65,3.14,6.24,9.91l-5.78-.92a20.37,20.37,0,0,1,7.33-8.91A19.59,19.59,0,0,1,554.69,22.1Z"/><path class="cls-2" d="M595.87,69.56a20.49,20.49,0,0,1-9.37-1.93,13.37,13.37,0,0,1-7.62-12.3,12.5,12.5,0,0,1,2.26-7.54,13.76,13.76,0,0,1,6.91-4.68,36.79,36.79,0,0,1,11.76-1.59h9.54v9.12h-6.53a7.82,7.82,0,0,0-4.39,1A3.3,3.3,0,0,0,597,54.49a3.35,3.35,0,0,0,1.22,2.64,4.88,4.88,0,0,0,3.31,1,6.43,6.43,0,0,0,3.55-1,6,6,0,0,0,2.39-3.31l2.43,5.61a12,12,0,0,1-4.61,7.62C603,68.72,599.83,69.56,595.87,69.56Zm13-.84V60.6l-1.34-2.18V43a6.36,6.36,0,0,0-2-5.1q-2.06-1.76-6.66-1.76a21.62,21.62,0,0,0-6.27,1,17.51,17.51,0,0,0-5.45,2.64l-6-12.47a31.88,31.88,0,0,1,9.62-3.85,46.8,46.8,0,0,1,11-1.34q11.8,0,18.29,5.27t6.48,16.74V68.72Z"/><path class="cls-2" d="M644.09,19.25a12,12,0,0,1-8.29-2.76,8.81,8.81,0,0,1-3.1-6.86,8.81,8.81,0,0,1,3.1-6.87A12,12,0,0,1,644.09,0a12.53,12.53,0,0,1,8.28,2.59,8.33,8.33,0,0,1,3.1,6.7,9.22,9.22,0,0,1-3.1,7.16A11.86,11.86,0,0,1,644.09,19.25Zm-9.46,49.47V22.93h18.91V68.72Z"/><path class="cls-2" d="M693.72,22.1a21,21,0,0,1,9.54,2.13A15.47,15.47,0,0,1,710,30.89q2.47,4.52,2.47,11.71V68.72H693.55V45.87q0-4.27-1.5-6.07a5.09,5.09,0,0,0-4.11-1.8,7.33,7.33,0,0,0-3.55.88,6.17,6.17,0,0,0-2.6,2.89,12.78,12.78,0,0,0-1,5.44V68.72H661.91V22.93h18v13.4l-3.6-3.85a18.33,18.33,0,0,1,7.24-7.79A20.19,20.19,0,0,1,693.72,22.1Z"/><path class="cls-3" d="M17,170a20.49,20.49,0,0,1-9.37-1.92A13.38,13.38,0,0,1,0,155.77a12.38,12.38,0,0,1,2.26-7.53,13.72,13.72,0,0,1,6.91-4.69A36.79,36.79,0,0,1,20.93,142h9.54v9.12H23.94a7.88,7.88,0,0,0-4.4,1,3.28,3.28,0,0,0-1.38,2.88,3.33,3.33,0,0,0,1.22,2.64,4.88,4.88,0,0,0,3.3,1.05,6.44,6.44,0,0,0,3.56-1.05,6,6,0,0,0,2.39-3.31l2.42,5.61a12,12,0,0,1-4.6,7.62C24.11,169.16,21,170,17,170Zm13-.84V161l-1.34-2.17v-15.4a6.39,6.39,0,0,0-2.05-5.11q-2.05-1.76-6.66-1.76a21.37,21.37,0,0,0-6.28,1A17.77,17.77,0,0,0,8.2,140.2l-6-12.47a32.14,32.14,0,0,1,9.62-3.85,47.33,47.33,0,0,1,11-1.34q11.81,0,18.29,5.27t6.48,16.74v24.61Z"/><path class="cls-3" d="M74.83,170A21.51,21.51,0,0,1,65,167.78a15.82,15.82,0,0,1-6.9-6.95q-2.52-4.72-2.51-12.17V123.38H74.49v22q0,4.86,1.6,6.78a5.31,5.31,0,0,0,4.35,1.93,6.08,6.08,0,0,0,3.14-.88A6.27,6.27,0,0,0,86,150.29a13.24,13.24,0,0,0,.92-5.4V123.38H105.8v45.78h-18V155.94l3.6,3.6a16.69,16.69,0,0,1-6.9,7.91A19.23,19.23,0,0,1,74.83,170Z"/><path class="cls-3" d="M163.89,170a31.17,31.17,0,0,1-14-3,23.45,23.45,0,0,1-9.58-8.42,23.55,23.55,0,0,1,0-24.64,23.5,23.5,0,0,1,9.58-8.38,31.3,31.3,0,0,1,14-3,27.1,27.1,0,0,1,14.31,3.6,18.65,18.65,0,0,1,8.2,10l-14.64,7.2a10.71,10.71,0,0,0-3.48-4.6,7.7,7.7,0,0,0-4.48-1.43,7.86,7.86,0,0,0-3.89,1,7.09,7.09,0,0,0-2.84,3,10.5,10.5,0,0,0-1,5,10.76,10.76,0,0,0,1,5,7,7,0,0,0,2.84,3,7.86,7.86,0,0,0,3.89,1,7.69,7.69,0,0,0,4.48-1.42,10.81,10.81,0,0,0,3.48-4.61l14.64,7.2a18.65,18.65,0,0,1-8.2,10A27.1,27.1,0,0,1,163.89,170Z"/><path class="cls-3" d="M215.62,170A32.42,32.42,0,0,1,201,166.9a23.52,23.52,0,0,1-9.67-8.49,22.21,22.21,0,0,1-3.43-12.18,22.5,22.5,0,0,1,3.39-12.3,23.27,23.27,0,0,1,9.29-8.38,30.65,30.65,0,0,1,25.78-.33,22,22,0,0,1,9.21,7.95,23.3,23.3,0,0,1,3.47,13.06c0,.67,0,1.41-.08,2.22s-.11,1.55-.17,2.21H203.56v-9.12h25.2L221.64,144a9.91,9.91,0,0,0-1-4.56,7.22,7.22,0,0,0-2.64-2.93,7.37,7.37,0,0,0-4-1,7.6,7.6,0,0,0-4.06,1,6.83,6.83,0,0,0-2.64,2.93,10.32,10.32,0,0,0-.92,4.56v2.85a10.15,10.15,0,0,0,1.17,5,7.49,7.49,0,0,0,3.35,3.14,12.2,12.2,0,0,0,5.27,1,13.89,13.89,0,0,0,5.23-.84,19.7,19.7,0,0,0,4.32-2.51l9.87,10a21.78,21.78,0,0,1-8.24,5.49A33,33,0,0,1,215.62,170Z"/><path class="cls-3" d="M276.8,122.54a21,21,0,0,1,9.55,2.14,15.48,15.48,0,0,1,6.73,6.65q2.48,4.51,2.47,11.72v26.11H276.64V146.31c0-2.84-.51-4.86-1.51-6.07a5.1,5.1,0,0,0-4.1-1.8,7.45,7.45,0,0,0-3.56.88,6.15,6.15,0,0,0-2.59,2.89,12.62,12.62,0,0,0-1,5.44v21.51H245V123.38h18v13.39l-3.6-3.85a18.36,18.36,0,0,1,7.24-7.78A20.2,20.2,0,0,1,276.8,122.54Z"/><path class="cls-3" d="M299.57,139.7V125.89h34.57V139.7ZM325.85,170q-9.45,0-14.73-4.56t-5.27-14V113.08h18.91v38.17a4.54,4.54,0,0,0,1.13,3.27,3.76,3.76,0,0,0,2.81,1.17,7.38,7.38,0,0,0,4.27-1.26l4.52,13.14a16.68,16.68,0,0,1-5.23,1.84A34.1,34.1,0,0,1,325.85,170Z"/><path class="cls-3" d="M342.26,169.16V123.38h18v13.81l-2.93-3.93a15.48,15.48,0,0,1,6.7-8,21.56,21.56,0,0,1,11.05-2.68v16.74c-.84-.11-1.58-.19-2.22-.25s-1.3-.08-2-.08a10.77,10.77,0,0,0-7,2.21c-1.81,1.48-2.72,4-2.72,7.66v20.34Z"/><path class="cls-3" d="M405.29,170a32.42,32.42,0,0,1-14.61-3.1,23.52,23.52,0,0,1-9.67-8.49,22.21,22.21,0,0,1-3.43-12.18,22.5,22.5,0,0,1,3.39-12.3,23.27,23.27,0,0,1,9.29-8.38,30.65,30.65,0,0,1,25.78-.33,22,22,0,0,1,9.21,7.95,23.3,23.3,0,0,1,3.47,13.06c0,.67,0,1.41-.08,2.22s-.11,1.55-.17,2.21H393.23v-9.12h25.2L411.31,144a9.91,9.91,0,0,0-1-4.56,7.22,7.22,0,0,0-2.64-2.93,7.37,7.37,0,0,0-4-1,7.6,7.6,0,0,0-4.06,1,6.83,6.83,0,0,0-2.64,2.93,10.19,10.19,0,0,0-.92,4.56v2.85a10.15,10.15,0,0,0,1.17,5A7.49,7.49,0,0,0,400.6,155a12.2,12.2,0,0,0,5.27,1,13.89,13.89,0,0,0,5.23-.84,19.42,19.42,0,0,0,4.31-2.51l9.88,10a21.78,21.78,0,0,1-8.24,5.49A33,33,0,0,1,405.29,170Z"/><path class="cls-4" d="M443.2,170a10.92,10.92,0,0,1-7.87-3.06,10.35,10.35,0,0,1-3.18-7.82,10.09,10.09,0,0,1,3.18-7.79,12,12,0,0,1,15.74,0,10.09,10.09,0,0,1,3.18,7.79,10.35,10.35,0,0,1-3.18,7.82A10.9,10.9,0,0,1,443.2,170Z"/><path class="cls-1" d="M91.66,27.27A33.64,33.64,0,0,1,96.35,25a33.19,33.19,0,0,1,4.94-1.54,47.65,47.65,0,0,1,5.93-1,43.58,43.58,0,0,1,7.69-.22c3.31.22,7.17.47,11.42,2.59a23.38,23.38,0,0,1,6,4.33,22.48,22.48,0,0,1,3.24,5.72A24,24,0,0,1,137,44.09V68.7H119.45V60.58A8.44,8.44,0,0,1,115.94,67a16.21,16.21,0,0,1-9.46,2.51,22.63,22.63,0,0,1-9.38-1.93,14.55,14.55,0,0,1-3.28-2.28,14.38,14.38,0,0,1-2.41-2.87A13.48,13.48,0,0,1,90,59.13a13.1,13.1,0,0,1-.49-3.82,12.1,12.1,0,0,1,2.26-7.54,13.86,13.86,0,0,1,6.9-4.68,32.6,32.6,0,0,1,6.15-1.37,31.8,31.8,0,0,1,5.61-.22H118a5.93,5.93,0,0,0-.83-2.19c-2.19-3.46-7.33-3.19-7.75-3.16a15.11,15.11,0,0,0-3.12.14,15.41,15.41,0,0,0-3.16.82,25.92,25.92,0,0,0-2.77,1.16,24.79,24.79,0,0,0-2.67,1.48Z"/><path class="cls-1" d="M118.09,50.62l0,3.18a6,6,0,0,1-1.66,2.75,6.22,6.22,0,0,1-4.28,1.6,4.7,4.7,0,0,1-2-.29,4.78,4.78,0,0,1-1.33-.75,3.89,3.89,0,0,1-.93-1.33,3.94,3.94,0,0,1-.28-1.31,2.87,2.87,0,0,1,.28-1.77,2.93,2.93,0,0,1,1.1-1.12,7.65,7.65,0,0,1,1.76-.75,7.39,7.39,0,0,1,2.63-.21Z"/><path class="cls-1" d="M245.58,50.22H213.8a9.53,9.53,0,0,0,3.38,4.09c4,2.65,10.14,1.85,15.35-2.08l9.87,10a21.34,21.34,0,0,1-4,3.32,23.09,23.09,0,0,1-4.28,2.16,26.16,26.16,0,0,1-5.72,1.47,34,34,0,0,1-6,.41,35.57,35.57,0,0,1-7.31-.68,28.48,28.48,0,0,1-7.3-2.41,26.24,26.24,0,0,1-4.61-2.92A23.38,23.38,0,0,1,198.12,58a22.15,22.15,0,0,1-2.47-5.41,23,23,0,0,1-1-6.77,22.2,22.2,0,0,1,.8-6.52,21.58,21.58,0,0,1,2.59-5.78A23,23,0,0,1,202,28.77a23.32,23.32,0,0,1,5.35-3.66,27.83,27.83,0,0,1,13.27-3,27.06,27.06,0,0,1,6.59.63,27.44,27.44,0,0,1,5.92,2,23.16,23.16,0,0,1,5.12,3.34,22.74,22.74,0,0,1,4.09,4.62,24,24,0,0,1,3.47,13.05C245.75,47.26,245.67,48.74,245.58,50.22Z"/><path class="cls-1" d="M228.14,41.1H213.39a7.39,7.39,0,0,1,2.86-4.75A7.26,7.26,0,0,1,220.81,35a7.07,7.07,0,0,1,7.33,6.11Z"/></svg>