<svg id="slogan_company_oneline" data-name="Slogan company oneline" xmlns="http://www.w3.org/2000/svg" viewBox="0 0 100.13 5.95">
    <defs>
        <style>.cls-1{fill:none;stroke:#fff;stroke-miterlimit:10;stroke-width:0.18px;}.cls-2{fill:#fff;}.cls-3{fill:#e8c40f;}.cls-4{fill:#30428e;}
        </style>
    </defs>
    <title>Slogan company oneline</title>
    <path class="cls-1" d="M0,52.84v-4.9H2.36a2.91,2.91,0,0,1,1.19.22,1.74,1.74,0,0,1,.77.64,1.87,1.87,0,0,1,0,2,1.81,1.81,0,0,1-.77.64,2.9,2.9,0,0,1-1.19.23H1.65v1.2Zm1.65-2.48h.61a.73.73,0,0,0,.5-.15.57.57,0,0,0,.17-.42.54.54,0,0,0-.17-.42.68.68,0,0,0-.5-.16H1.65Z" transform="translate(0.13 -47.09)"/>
    <path class="cls-1" d="M5.16,52.84v-5.2H6.74v5.2Z" transform="translate(0.13 -47.09)"/>
    <path class="cls-1" d="M14.05,52.91a2.58,2.58,0,0,1-1.17-.25,1.9,1.9,0,0,1-.8-.71,1.92,1.92,0,0,1,0-2.06,2,2,0,0,1,.8-.7,2.58,2.58,0,0,1,1.17-.25,2.32,2.32,0,0,1,1.2.3,1.54,1.54,0,0,1,.68.83l-1.22.61a1,1,0,0,0-.29-.39.66.66,0,0,0-.71,0,.49.49,0,0,0-.23.24,1,1,0,0,0,0,.84.51.51,0,0,0,.23.25.66.66,0,0,0,.71,0,1,1,0,0,0,.29-.39l1.22.61a1.54,1.54,0,0,1-.68.83A2.32,2.32,0,0,1,14.05,52.91Z" transform="translate(0.13 -47.09)"/>
    <path class="cls-1" d="M20.66,52.84v-.91l1.59-1.77H20.72V49h3.52v.91l-1.58,1.76h1.66v1.15Z" transform="translate(0.13 -47.09)"/>
    <path class="cls-2" d="M26.9,52.84v-5.2h1.58v5.2Z" transform="translate(0.13 -47.09)"/>
    <path class="cls-2" d="M29.08,50.43l.58-2,.24.88a.93.93,0,0,1-.67-.23.84.84,0,0,1-.26-.64.88.88,0,0,1,.26-.66,1,1,0,0,1,1.33,0,.88.88,0,0,1,.26.66,1.64,1.64,0,0,1,0,.22,1.08,1.08,0,0,1-.07.27c0,.11-.1.25-.18.43l-.49,1Z" transform="translate(0.13 -47.09)"/>
    <path class="cls-2" d="M34,48.94a1.74,1.74,0,0,1,.8.18,1.31,1.31,0,0,1,.57.55,2.18,2.18,0,0,1,.2,1v2.18H34V50.93a.76.76,0,0,0-.13-.51.42.42,0,0,0-.34-.15.6.6,0,0,0-.3.07.55.55,0,0,0-.22.25,1.1,1.1,0,0,0-.08.45v1.8H31.31v-5.2h1.58v2.49l-.37-.32a1.52,1.52,0,0,1,.6-.65A1.66,1.66,0,0,1,34,48.94Z" transform="translate(0.13 -47.09)"/>
    <path class="cls-2" d="M37.83,52.91a1.87,1.87,0,0,1-.83-.18,1.36,1.36,0,0,1-.57-.59,2.15,2.15,0,0,1-.21-1V49H37.8v1.84a.92.92,0,0,0,.13.57.44.44,0,0,0,.37.16.48.48,0,0,0,.26-.07.52.52,0,0,0,.2-.25,1.1,1.1,0,0,0,.08-.45V49h1.58v3.83H38.91V51.73l.3.31a1.38,1.38,0,0,1-.57.66A1.63,1.63,0,0,1,37.83,52.91Z" transform="translate(0.13 -47.09)"/>
    <path class="cls-2" d="M46.19,48.94a1.66,1.66,0,0,1,.78.18,1.27,1.27,0,0,1,.55.55,2.18,2.18,0,0,1,.2,1v2.18H46.14V50.93a.83.83,0,0,0-.12-.51.39.39,0,0,0-.31-.15.43.43,0,0,0-.25.07.44.44,0,0,0-.18.22.94.94,0,0,0-.07.41v1.87H43.63V50.93a.92.92,0,0,0-.11-.51.38.38,0,0,0-.32-.15.43.43,0,0,0-.25.07.44.44,0,0,0-.18.22,1.12,1.12,0,0,0-.07.41v1.87H41.12V49h1.51v1.1l-.31-.31a1.48,1.48,0,0,1,.58-.65,1.58,1.58,0,0,1,.81-.21,1.61,1.61,0,0,1,.9.26,1.36,1.36,0,0,1,.52.83L44.64,50a1.73,1.73,0,0,1,.62-.74A1.64,1.64,0,0,1,46.19,48.94Z" transform="translate(0.13 -47.09)"/>
    <path class="cls-2" d="M49.64,52.91a1.71,1.71,0,0,1-.79-.16,1.16,1.16,0,0,1-.47-.43,1.12,1.12,0,0,1-.16-.6,1,1,0,0,1,.19-.63A1.12,1.12,0,0,1,49,50.7a3.06,3.06,0,0,1,1-.14h.8v.77h-.55a.62.62,0,0,0-.37.08.28.28,0,0,0-.11.24.27.27,0,0,0,.1.22.41.41,0,0,0,.28.09.52.52,0,0,0,.29-.09.5.5,0,0,0,.2-.28l.21.47a1,1,0,0,1-.39.64A1.34,1.34,0,0,1,49.64,52.91Zm1.09-.07v-.68L50.61,52V50.69a.52.52,0,0,0-.17-.43.84.84,0,0,0-.56-.14,1.61,1.61,0,0,0-.52.08,1.31,1.31,0,0,0-.46.22l-.5-1.05a2.79,2.79,0,0,1,.8-.32,4.27,4.27,0,0,1,.92-.11,2.38,2.38,0,0,1,1.53.44,1.67,1.67,0,0,1,.55,1.4v2.06Z" transform="translate(0.13 -47.09)"/>
    <path class="cls-2" d="M53.67,48.7a1,1,0,0,1-.69-.23.77.77,0,0,1,0-1.15,1.19,1.19,0,0,1,1.39,0,.7.7,0,0,1,.26.56.79.79,0,0,1-.26.6A1,1,0,0,1,53.67,48.7Zm-.79,4.14V49h1.59v3.83Z" transform="translate(0.13 -47.09)"/>
    <path class="cls-2" d="M57.83,48.94a1.77,1.77,0,0,1,.8.18,1.29,1.29,0,0,1,.56.55,2,2,0,0,1,.21,1v2.18H57.82V50.93a.82.82,0,0,0-.13-.51.42.42,0,0,0-.34-.15.6.6,0,0,0-.3.07.5.5,0,0,0-.22.25,1.1,1.1,0,0,0-.08.45v1.8H55.17V49h1.5v1.12l-.3-.32a1.48,1.48,0,0,1,.61-.65A1.63,1.63,0,0,1,57.83,48.94Z" transform="translate(0.13 -47.09)"/>
    <path class="cls-3" d="M63.4,52.84a1.71,1.71,0,0,1-.79-.16,1.16,1.16,0,0,1-.47-.43,1.12,1.12,0,0,1-.16-.6,1,1,0,0,1,.19-.63,1.12,1.12,0,0,1,.57-.39,3.06,3.06,0,0,1,1-.14h.8v.77H64a.62.62,0,0,0-.37.08.28.28,0,0,0-.11.24.27.27,0,0,0,.1.22.41.41,0,0,0,.28.09.52.52,0,0,0,.29-.09.5.5,0,0,0,.2-.28l.21.47a1,1,0,0,1-.39.64A1.34,1.34,0,0,1,63.4,52.84Zm1.09-.07v-.68l-.12-.18V50.62a.52.52,0,0,0-.17-.43.84.84,0,0,0-.56-.14,1.61,1.61,0,0,0-.52.08,1.31,1.31,0,0,0-.46.22l-.5-1.05A2.79,2.79,0,0,1,63,49a4.27,4.27,0,0,1,.92-.11,2.38,2.38,0,0,1,1.53.44,1.67,1.67,0,0,1,.55,1.4v2.06Z" transform="translate(0.13 -47.09)"/>
    <path class="cls-3" d="M68.24,52.84a1.83,1.83,0,0,1-.82-.18,1.32,1.32,0,0,1-.58-.59,2.15,2.15,0,0,1-.21-1V48.94h1.58v1.84a.91.91,0,0,0,.14.57.42.42,0,0,0,.36.16.48.48,0,0,0,.26-.07.52.52,0,0,0,.2-.25,1.1,1.1,0,0,0,.08-.45v-1.8h1.58v3.83h-1.5V51.66l.3.31a1.45,1.45,0,0,1-.58.66A1.63,1.63,0,0,1,68.24,52.84Z" transform="translate(0.13 -47.09)"/>
    <path class="cls-3" d="M75.7,52.84a2.58,2.58,0,0,1-1.17-.25,1.93,1.93,0,0,1-.81-.71,2,2,0,0,1,0-2.06,2,2,0,0,1,.81-.7,2.58,2.58,0,0,1,1.17-.25,2.26,2.26,0,0,1,1.19.3,1.6,1.6,0,0,1,.69.83l-1.23.61a.87.87,0,0,0-.29-.39.64.64,0,0,0-.7,0,.56.56,0,0,0-.24.24,1.14,1.14,0,0,0,0,.84.58.58,0,0,0,.24.25.64.64,0,0,0,.7,0,.87.87,0,0,0,.29-.39l1.23.61a1.6,1.6,0,0,1-.69.83A2.26,2.26,0,0,1,75.7,52.84Z" transform="translate(0.13 -47.09)"/>
    <path class="cls-3" d="M80,52.84a2.79,2.79,0,0,1-1.23-.26,1.94,1.94,0,0,1-.81-.71,2,2,0,0,1,0-2,2,2,0,0,1,.78-.7,2.39,2.39,0,0,1,1.11-.25,2.44,2.44,0,0,1,1.05.22,1.85,1.85,0,0,1,.77.67A2,2,0,0,1,82,50.85c0,.06,0,.12,0,.19s0,.13,0,.18H79v-.76h2.11l-.6.2a.89.89,0,0,0-.08-.38.57.57,0,0,0-.22-.24.69.69,0,0,0-.68,0,.57.57,0,0,0-.22.24.89.89,0,0,0-.08.38v.24a.93.93,0,0,0,.1.42.59.59,0,0,0,.28.26,1,1,0,0,0,.44.09,1.1,1.1,0,0,0,.44-.07,1.68,1.68,0,0,0,.36-.21l.83.83a1.71,1.71,0,0,1-.69.46A2.61,2.61,0,0,1,80,52.84Z" transform="translate(0.13 -47.09)"/>
    <path class="cls-3" d="M85.15,48.87a1.77,1.77,0,0,1,.8.18,1.35,1.35,0,0,1,.56.55,2,2,0,0,1,.21,1v2.18H85.13V50.86a.83.83,0,0,0-.12-.51.44.44,0,0,0-.35-.15.59.59,0,0,0-.29.07.46.46,0,0,0-.22.25,1,1,0,0,0-.08.45v1.8H82.48V48.94H84v1.12l-.3-.32a1.48,1.48,0,0,1,.61-.65A1.61,1.61,0,0,1,85.15,48.87Z" transform="translate(0.13 -47.09)"/>
    <path class="cls-3" d="M87.05,50.3V49.15H90V50.3Zm2.2,2.54A1.83,1.83,0,0,1,88,52.46a1.46,1.46,0,0,1-.44-1.17V48.08h1.58v3.19a.33.33,0,0,0,.1.27.29.29,0,0,0,.23.1.61.61,0,0,0,.36-.1l.38,1.1a1.43,1.43,0,0,1-.44.15A3.1,3.1,0,0,1,89.25,52.84Z" transform="translate(0.13 -47.09)"/>
    <path class="cls-3" d="M90.63,52.77V48.94h1.5v1.15l-.24-.32a1.26,1.26,0,0,1,.56-.68,1.77,1.77,0,0,1,.92-.22v1.4l-.18,0H93a.85.85,0,0,0-.58.19.75.75,0,0,0-.23.64v1.7Z" transform="translate(0.13 -47.09)"/>
    <path class="cls-3" d="M95.9,52.84a2.74,2.74,0,0,1-1.22-.26,1.94,1.94,0,0,1-.81-.71,2,2,0,0,1,0-2,1.93,1.93,0,0,1,.77-.7,2.39,2.39,0,0,1,1.11-.25,2.44,2.44,0,0,1,1,.22,1.79,1.79,0,0,1,.77.67,1.89,1.89,0,0,1,.29,1.09V51c0,.06,0,.13,0,.18h-3v-.76H97l-.59.2a.89.89,0,0,0-.08-.38A.59.59,0,0,0,96.1,50a.58.58,0,0,0-.33-.09.62.62,0,0,0-.34.09.51.51,0,0,0-.22.24.89.89,0,0,0-.08.38v.24a.82.82,0,0,0,.1.42.55.55,0,0,0,.28.26,1,1,0,0,0,.44.09,1.13,1.13,0,0,0,.44-.07,2.36,2.36,0,0,0,.36-.21l.83.83a1.71,1.71,0,0,1-.69.46A2.71,2.71,0,0,1,95.9,52.84Z" transform="translate(0.13 -47.09)"/>
    <path class="cls-4" d="M99.08,52.84a.89.89,0,0,1-.93-.91.83.83,0,0,1,.27-.65,1,1,0,0,1,1.31,0,.83.83,0,0,1,.27.65.89.89,0,0,1-.92.91Z" transform="translate(0.13 -47.09)"/>
    <path class="cls-1" d="M7.43,49.37a3,3,0,0,1,.4-.19,3.15,3.15,0,0,1,.41-.13,3.63,3.63,0,0,1,.5-.09,5.19,5.19,0,0,1,.64,0,2.35,2.35,0,0,1,1,.22,2.16,2.16,0,0,1,.5.36,1.87,1.87,0,0,1,.39,1.26v2.06H9.76v-.68a.69.69,0,0,1-.1.33.67.67,0,0,1-.19.21,1.43,1.43,0,0,1-.8.21l-.35,0a1.7,1.7,0,0,1-.43-.13,1.54,1.54,0,0,1-.28-.19,1.8,1.8,0,0,1-.2-.24A1.55,1.55,0,0,1,7.29,52a1.45,1.45,0,0,1,0-.32,1,1,0,0,1,0-.34,1.12,1.12,0,0,1,.14-.29,1.16,1.16,0,0,1,.25-.24A1.27,1.27,0,0,1,8,50.7a2.76,2.76,0,0,1,.51-.12,4.11,4.11,0,0,1,.47,0h.64a.52.52,0,0,0-.07-.18.78.78,0,0,0-.65-.27,1.28,1.28,0,0,0-.26,0,1.37,1.37,0,0,0-.27.06l-.23.1a1.16,1.16,0,0,0-.22.13Z" transform="translate(0.13 -47.09)"/>
    <path class="cls-1" d="M9.65,51.33v.26a.54.54,0,0,1-.14.23.51.51,0,0,1-.36.14.4.4,0,0,1-.17,0l-.11-.06a.35.35,0,0,1-.07-.11.36.36,0,0,1,0-.11.25.25,0,0,1,0-.15.25.25,0,0,1,.09-.09A.53.53,0,0,1,9,51.34a.56.56,0,0,1,.22,0Z" transform="translate(0.13 -47.09)"/>
    <path class="cls-1" d="M20.32,51.29H17.66a.73.73,0,0,0,.28.34,1.13,1.13,0,0,0,1.29-.17l.82.83a1.61,1.61,0,0,1-.33.28,1.55,1.55,0,0,1-.36.18,2.19,2.19,0,0,1-.48.13,3.49,3.49,0,0,1-.5,0,2.56,2.56,0,0,1-.61-.06,2,2,0,0,1-.62-.2,2.36,2.36,0,0,1-.38-.24,1.72,1.72,0,0,1-.42-.47,1.46,1.46,0,0,1-.21-.45,1.79,1.79,0,0,1-.08-.57,2.11,2.11,0,0,1,.06-.54,1.75,1.75,0,0,1,.22-.49,2.07,2.07,0,0,1,.33-.39,2.15,2.15,0,0,1,.45-.31,2.39,2.39,0,0,1,.56-.2,2.28,2.28,0,0,1,.55-.05,1.87,1.87,0,0,1,.55.05,2.62,2.62,0,0,1,.5.17,2.36,2.36,0,0,1,.43.28,1.84,1.84,0,0,1,.34.39,2,2,0,0,1,.23.56,2.25,2.25,0,0,1,.06.53Z" transform="translate(0.13 -47.09)"/>
    <path class="cls-1" d="M18.86,50.53H17.62a.67.67,0,0,1,.24-.4.59.59,0,0,1,.38-.11.6.6,0,0,1,.42.14A.63.63,0,0,1,18.86,50.53Z" transform="translate(0.13 -47.09)"/>
</svg>